<?xml version="1.0" standalone="no"?>
<!DOCTYPE svg PUBLIC "-//W3C//DTD SVG 1.1//EN" "http://www.w3.org/Graphics/SVG/1.1/DTD/svg11.dtd" >
<!--
2013-9-30: Created.
-->
<svg>
<metadata>
Created by iconfont
</metadata>
<defs>

<font id="iconfont" horiz-adv-x="1024" >
  <font-face
    font-family="iconfont"
    font-weight="500"
    font-stretch="normal"
    units-per-em="1024"
    ascent="896"
    descent="-128"
  />
    <missing-glyph />
    
    <glyph glyph-name="x" unicode="x" horiz-adv-x="1001"
d="M281 543q-27 -1 -53 -1h-83q-18 0 -36.5 -6t-32.5 -18.5t-23 -32t-9 -45.5v-76h912v41q0 16 -0.5 30t-0.5 18q0 13 -5 29t-17 29.5t-31.5 22.5t-49.5 9h-133v-97h-438v97zM955 310v-52q0 -23 0.5 -52t0.5 -58t-10.5 -47.5t-26 -30t-33 -16t-31.5 -4.5q-14 -1 -29.5 -0.5
t-29.5 0.5h-32l-45 128h-439l-44 -128h-29h-34q-20 0 -45 1q-25 0 -41 9.5t-25.5 23t-13.5 29.5t-4 30v167h911zM163 247q-12 0 -21 -8.5t-9 -21.5t9 -21.5t21 -8.5q13 0 22 8.5t9 21.5t-9 21.5t-22 8.5zM316 123q-8 -26 -14 -48q-5 -19 -10.5 -37t-7.5 -25t-3 -15t1 -14.5
t9.5 -10.5t21.5 -4h37h67h81h80h64h36q23 0 34 12t2 38q-5 13 -9.5 30.5t-9.5 34.5q-5 19 -11 39h-368zM336 498v228q0 11 2.5 23t10 21.5t20.5 15.5t34 6h188q31 0 51.5 -14.5t20.5 -52.5v-227h-327z" />
    

    
    <glyph glyph-name="favorfill" unicode="&#58955;" d="M957.216 491.68c-3.808 11.36-13.632 19.68-25.504 21.504l-270.336 41.728-120.8 258.624C535.328 824.768 524.032 831.968 511.648 832c0 0-0.032 0-0.064 0-12.384 0-23.648-7.136-28.928-18.336l-121.856-258.016-270.72-40.8c-11.872-1.792-21.728-10.048-25.568-21.408-3.84-11.36-0.992-23.936 7.36-32.512l196.448-202.08L221.44-25.952c-1.984-12.096 3.104-24.256 13.12-31.328 9.984-7.072 23.168-7.808 33.888-1.92l241.824 133.024 241.312-133.856C756.416-62.656 761.76-64 767.104-64c0.256 0 0.48 0 0.64 0 17.696 0 32 14.304 32 32 0 3.968-0.704 7.776-2.016 11.296l-44.896 278.688 196.928 201.248C958.08 467.776 960.992 480.32 957.216 491.68z"  horiz-adv-x="1024" />

    
    <glyph glyph-name="favor" unicode="&#58956;" d="M767.104-63.936c-5.344 0-10.688 1.344-15.52 4.032l-241.312 133.856-241.824-133.024c-10.72-5.92-23.904-5.152-33.888 1.92-10.016 7.072-15.104 19.264-13.12 31.328l46.88 284.736-196.448 202.08c-8.256 8.512-11.168 20.928-7.456 32.192 3.68 11.296 13.312 19.616 25.024 21.632l155.072 26.592c17.632 2.944 33.984-8.736 36.96-26.144 2.976-17.408-8.704-33.952-26.144-36.96l-95.168-16.32 165.344-170.08c7.072-7.296 10.272-17.504 8.64-27.488l-38.816-235.68 199.616 109.824c9.632 5.312 21.344 5.312 30.944-0.064l199.168-110.464-38.016 235.776c-1.632 10.016 1.632 20.224 8.704 27.456l164.672 168.256-225.664 34.816c-10.56 1.632-19.584 8.416-24.128 18.08l-99.2 212.384-100.064-211.84c-7.552-16-26.624-22.816-42.624-15.264-15.968 7.552-22.816 26.624-15.264 42.624l129.152 273.44c5.312 11.2 16.576 18.336 28.928 18.336 0 0 0.032 0 0.064 0 12.416-0.032 23.68-7.232 28.928-18.464l120.8-258.624 270.336-41.728c11.872-1.824 21.696-10.144 25.504-21.504 3.776-11.36 0.864-23.936-7.488-32.48l-196.928-201.216 45.92-284.864c1.952-12.096-3.2-24.256-13.216-31.296C780-62.016 773.568-63.936 767.104-63.936z"  horiz-adv-x="1024" />

    
    <glyph glyph-name="roundcheckfill" unicode="&#58966;" d="M512 830.016C266.08 830.016 65.984 629.92 65.984 384c0-245.952 200.064-446.016 446.016-446.016 245.952 0 446.016 200.064 446.016 446.016C958.016 629.92 757.952 830.016 512 830.016zM727.232 457.568l-256.224-259.008c-0.064-0.064-0.192-0.096-0.256-0.192-0.096-0.064-0.096-0.192-0.192-0.256-2.048-1.984-4.576-3.2-6.944-4.544-1.184-0.672-2.144-1.696-3.392-2.176-3.84-1.536-7.904-2.336-11.968-2.336-4.096 0-8.224 0.8-12.096 2.4-1.28 0.544-2.304 1.632-3.52 2.304-2.368 1.344-4.832 2.528-6.88 4.544-0.064 0.064-0.096 0.192-0.16 0.256-0.064 0.096-0.192 0.096-0.256 0.192l-126.016 129.504c-12.32 12.672-12.032 32.928 0.64 45.248 12.672 12.288 32.896 12.064 45.248-0.64l103.264-106.112 233.28 235.84c12.416 12.576 32.704 12.704 45.248 0.256C739.52 490.4 739.648 470.144 727.232 457.568z"  horiz-adv-x="1024" />

    
    <glyph glyph-name="square" unicode="&#59093;" d="M832-32 192-32c-52.928 0-96 43.072-96 96L96 704c0 52.928 43.072 96 96 96l640 0c52.928 0 96-43.072 96-96l0-640C928 11.072 884.928-32 832-32zM192 736C174.368 736 160 721.632 160 704l0-640c0-17.664 14.368-32 32-32l640 0c17.664 0 32 14.336 32 32L864 704c0 17.632-14.336 32-32 32L192 736z"  horiz-adv-x="1024" />

    
    <glyph glyph-name="squarecheck" unicode="&#59094;" d="M726.976 502.816c-12.544 12.448-32.832 12.32-45.248-0.256l-233.28-235.808-103.264 106.112c-12.352 12.704-32.608 12.928-45.248 0.64-12.672-12.32-12.96-32.608-0.64-45.248l126.016-129.504c0.064-0.096 0.192-0.096 0.256-0.192 0.064-0.064 0.096-0.192 0.16-0.256 2.016-1.984 4.512-3.2 6.88-4.544 1.248-0.672 2.24-1.792 3.52-2.304 3.872-1.6 8-2.4 12.096-2.4 4.064 0 8.128 0.8 11.968 2.336 1.248 0.512 2.208 1.536 3.392 2.176 2.4 1.344 4.896 2.528 6.944 4.544 0.064 0.064 0.096 0.192 0.192 0.256 0.064 0.096 0.16 0.128 0.256 0.192l256.224 259.008C739.648 470.112 739.52 490.368 726.976 502.816zM832-32 192-32c-52.928 0-96 43.072-96 96L96 704c0 52.928 43.072 96 96 96l640 0c52.928 0 96-43.072 96-96l0-640C928 11.072 884.928-32 832-32zM192 736C174.368 736 160 721.632 160 704l0-640c0-17.664 14.368-32 32-32l640 0c17.664 0 32 14.336 32 32L864 704c0 17.632-14.336 32-32 32L192 736z"  horiz-adv-x="1024" />

    
    <glyph glyph-name="31shouyexuanzhong" unicode="&#58880;" d="M939.175079 411.656897 557.721321 788.244834c-1.927909 2.289136-5.950526 6.025227-11.568477 9.730619-10.06217 6.627954-20.757766 10.001795-31.783891 10.001795-11.855002 0-22.820752-3.40454-32.597419-10.092869-6.477528-4.458545-9.942443-8.465812-11.4334-10.454096L89.606831 411.626197c-6.522554-6.417153-10.107195-14.973016-10.107195-24.071232 0-9.06854 3.584642-17.624403 10.107195-24.041556 11.990079-11.900028 29.494755-8.495488 46.169529 7.92346l25.592888 25.306362 41.892109 40.08495 0-389.497968c0-48.143487 39.617299-87.308485 88.317465-87.308485l148.993382 0L440.572204 208.329025c0 19.160385 15.84692 34.736129 35.30918 34.736129l77.020164 0c19.47761 0 35.293831-15.575744 35.293831-34.736129l0-248.307296 149.008732 0c48.685839 0 88.332814 39.164998 88.332814 87.308485L825.536926 434.810223l67.484997-66.355267c11.508102-7.531534 21.842471-11.538801 30.217209-11.538801 6.236028 0 11.44875 2.169409 15.936971 6.598278 6.507204 6.417153 10.092869 14.94334 10.122545 24.041556C949.297624 396.653181 945.712983 405.210068 939.175079 411.656897z"  horiz-adv-x="1024" />

    
    <glyph glyph-name="31shouye" unicode="&#58881;" d="M939.175079 411.656897 557.721321 788.244834c-1.927909 2.290159-5.950526 6.025227-11.568477 9.730619-10.06217 6.627954-20.757766 10.001795-31.783891 10.001795-11.855002 0-22.820752-3.40454-32.597419-10.092869-6.477528-4.458545-9.942443-8.465812-11.4334-10.454096L89.606831 411.626197c-6.522554-6.417153-10.107195-14.973016-10.107195-24.071232 0-9.06854 3.584642-17.624403 10.107195-24.041556 11.990079-11.900028 29.494755-8.495488 46.169529 7.92346l25.592888 25.306362 354.068038 342.966189 2.15406-2.109034 375.428531-369.146455c11.508102-7.531534 21.842471-11.538801 30.217209-11.538801 6.236028 0 11.44875 2.169409 15.936971 6.598278 6.507204 6.417153 10.092869 14.94334 10.122545 24.041556C949.297624 396.653181 945.712983 405.210068 939.175079 411.656897zM796.885376 431.119157c-15.72617 0-28.590152-12.68388-28.681226-28.259624l0-351.311251c0-19.191084-15.816221-34.796504-35.278481-34.796504l-87.458911 0L645.466758 212.576769c0 48.143487-39.617299 87.308485-88.317465 87.308485l-85.531002 0c-48.700165 0-88.317465-39.164998-88.317465-87.308485L383.300826 16.751778 295.841915 16.751778c-19.462261 0-35.30918 15.60542-35.30918 34.796504L260.532735 402.769482c-0.029676 15.636119-12.863982 28.349675-28.620851 28.349675-15.741519 0-28.605501-12.713556-28.650527-28.318976l0-355.468944c0-48.143487 39.617299-87.308485 88.317465-87.308485l148.993382 0L440.572204 208.329025c0 19.160385 15.84692 34.736129 35.30918 34.736129l77.020164 0c19.47761 0 35.293831-15.575744 35.293831-34.736129l0-248.307296 149.008732 0c48.685839 0 88.332814 39.164998 88.332814 87.308485L825.536926 402.829857C825.415153 418.405601 812.580846 431.119157 796.885376 431.119157z"  horiz-adv-x="1024" />

    
    <glyph glyph-name="radiobox" unicode="&#59227;" d="M512 830.016C266.08 830.016 65.984 629.92 65.984 384c0-245.952 200.064-446.016 446.016-446.016 245.952 0 446.016 200.064 446.016 446.016C958.016 629.92 757.952 830.016 512 830.016zM512 1.984C301.344 1.984 129.984 173.376 129.984 384 129.984 594.656 301.344 766.016 512 766.016c210.624 0 382.016-171.36 382.016-382.016C894.016 173.376 722.624 1.984 512 1.984zM512 544c-88.224 0-160-71.776-160-160s71.776-160 160-160 160 71.776 160 160S600.224 544 512 544z"  horiz-adv-x="1024" />

    
    <glyph glyph-name="songfanxiuxinxi" unicode="&#58898;" d="M21.270456 598.648702c2.353404-3.233684 4.239719-6.934456 7.185965-9.647158 40.385123-37.564632 80.896-75.021474 121.388912-112.460351 26.480281-24.468211 56.679298-24.468211 82.97993-0.125754 17.677474 16.330105 35.408842 32.606316 52.978526 49.062175 22.833404 21.414175 22.923228 50.768842-0.143719 72.236912-42.307368 39.307228-84.92014 78.362947-127.371228 117.526456C155.342596 717.953684 152.61193 720.774175 148.893193 724.439018c34.223158 13.096421 68.608 18.755368 104.304281 16.545684 139.264-8.677053 237.747649-119.718175 219.674947-247.754105-1.221614-8.802807 2.443228-13.743158 8.479439-19.276351 161.091368-148.713544 322.092912-297.498947 482.986667-446.320281 47.696842-44.139789 56.840982-108.076912 23.318456-159.348772-46.295579-70.763789-152.414316-83.033825-215.722667-24.593965-164.019649 151.498105-327.895579 303.17586-491.645754 454.907509-6.17993 5.730807-11.910737 7.850667-20.983018 7.168C120.885895 295.86807 6.090105 392.483368 3.592982 520.968421c-0.503018 25.707789 3.970246 50.876632 17.677474 77.644351L21.270456 598.648702zM801.396772-69.484351c0-36.702316 32.085333-66.542035 71.787789-66.739649 39.307228-0.233544 72.200982 29.857684 72.488421 66.272561 0.323368 37.061614-32.534456 67.458246-72.488421 67.170807C833.446175-3.050105 801.396772-32.8 801.396772-69.484351L801.396772-69.484351zM590.452772 436.389614c-13.222175 11.892772-25.348491 22.725614-37.780211 33.917754 2.191719 2.443228 3.718737 4.473263 5.533193 6.17993 84.00393 77.698246 167.792281 155.594105 252.011789 233.022877 55.781053 51.307789 146.342175 40.313263 184.571509-21.863298 25.114947-40.816281 19.941053-93.076211-15.773193-126.616702-85.441123-80.357053-172.032-159.618246-258.245614-239.310596-0.790456-0.754526-1.868351-1.185684-2.515088-1.562947-11.946667 11.551439-23.785544 23.013053-38.822175 37.528702 1.491088 0.754526 6.341614 2.065965 9.503439 4.958316 84.95607 78.291088 169.732491 156.761825 254.526877 235.232561 2.712702 2.497123 7.060211 4.958316 7.419509 7.868632 0.844351 5.766737 1.275509 12.773053-1.562947 17.497825-3.736702 6.233825-11.749053 8.084211-19.186526 4.149895-4.203789-2.281544-7.904561-5.623018-11.407719-8.838737-84.255439-77.949754-168.492912-155.935439-252.568702-234.010947-3.197754-2.982175-5.245754-6.970386-7.688982-10.222035-15.916912 14.839018-29.318737 27.360561-45.720702 42.648702 3.521123 2.065965 8.048281 3.736702 11.264 6.682947 84.363228 77.85993 168.618667 155.809684 252.928 233.759439 12.952702 11.964632 14.785123 20.44407 6.090105 27.989333-8.281825 7.185965-17.156491 5.371509-29.498386-6.000281-84.542877-78.201263-169.085754-156.366596-253.610667-234.56786-2.946246-2.712702-6.07214-5.317614-9.503439-8.389614L590.416842 436.389614zM43.600842-194.035088c-13.419789 12.773053-26.857544 25.977263-40.798316 38.624561-5.407439 4.922386-1.742596 8.048281 0.934175 11.838877 28.941474 40.636632 57.882947 81.237333 86.860351 121.89193 2.748632 3.862456 6.17993 7.437474 8.12014 11.605333 12.054456 26.174877 34.043509 38.229333 64.026947 39.846175 18.917053 1.041965 32.965614 9.754947 46.205754 22.438175 41.355228 39.612632 83.914105 78.147368 126.059789 117.059368 2.676772 2.443228 5.461333 4.814596 7.491368 6.575158 18.755368-17.33614 37.097544-34.295018 56.445754-52.116211-7.796772-6.934456-16.401965-14.40786-24.773614-22.114807-40.259368-37.151439-80.536702-74.266947-120.472702-111.705825-4.491228-4.239719-7.868632-10.383719-9.557333-16.168421-4.383439-15.449825-7.185965-31.258947-11.407719-46.744702-1.05993-3.988211-4.096-8.569263-7.706947-10.796912-58.188351-35.80407-116.592281-71.338667-174.960281-106.855298-1.634807-0.95214-3.341474-1.706667-6.485333-3.323509L43.600842-194.035088zM43.600842-194.035088"  horiz-adv-x="1024" />

    
    <glyph glyph-name="dingdan" unicode="&#58939;" d="M603.792613 827.35048 409.943626 827.35048c-23.77652 0-42.785455-21.154809-42.785455-47.303352 0-26.208918 19.043728-47.426149 42.785455-47.426149l195.048301 0c22.580275 0 41.617863 21.217231 41.617863 47.426149C646.614907 806.196695 627.599831 827.35048 603.792613 827.35048L603.792613 827.35048 603.792613 827.35048zM814.280558 795.778414l-96.531544 0c0.981351-5.183046 1.548262-10.425444 1.548262-15.731286 0.029676-39.817867-28.855188-79.006402-63.21474-79.006402L359.51919 701.040726c-36.160571 0-65.084321 39.188534-65.084321 79.006402 0.034792 5.305843 0.601704 10.54824 1.583055 15.731286l-97.698113 0c-78.533634 0-97.828073-44.523029-97.828073-108.750843l0-636.20993c0-68.995397 27.629267-107.61088 103.758132-107.61088l604.094488 0c76.129888 0 113.137757 30.27656 113.137757 107.576087L921.482115 687.028595c0.00614 64.221674-34.641985 108.744703-107.200534 108.744703l0 0L814.281581 795.778414zM715.102744 167.619858 295.321052 167.619858c-15.47239 0-30.918173 18.980283-30.918173 34.477232 0 15.44476 13.072737 28.675086 28.54615 28.675086l418.5834 0c15.468296 0 28.54001-12.025894 29.713742-28.675086C741.246171 186.595025 730.571041 167.619858 715.102744 167.619858L715.102744 167.619858 715.102744 167.619858zM716.808596 336.074478 297.021787 336.074478c-15.474436 0-25.326828 16.636912-25.326828 32.145118 0 15.503089 13.078877 31.007201 28.54615 31.007201l418.5834 0c15.474436 0 28.54615-14.364149 29.713742-31.007201C748.539274 352.716506 732.24824 336.074478 716.808596 336.074478L716.808596 336.074478 716.808596 336.074478zM716.808596 509.084856 297.021787 509.084856c-15.474436 0-25.326828 16.643052-25.326828 32.145118 0 15.504112 13.078877 31.007201 28.54615 31.007201l418.5834 0c15.474436 0 28.54615-14.370289 29.713742-31.007201C748.539274 525.727908 732.24824 509.084856 716.808596 509.084856L716.808596 509.084856 716.808596 509.084856zM716.808596 509.084856"  horiz-adv-x="1024" />

    
    <glyph glyph-name="logo20-copy" unicode="&#58892;" d="M665.035 562.078h-306.072c-13.826 0-25.042-11.216-25.042-25.042v-16.695c0-13.825 11.216-25.042 25.042-25.042h306.072c13.826 0 25.042 11.216 25.042 25.042v16.695c-0.001 13.826-11.217 25.042-25.042 25.042zM667.817 406.26h-311.638c-12.326 0-22.26-9.956-22.26-22.26v-22.26c0-12.303 9.934-22.259 22.26-22.259h311.638c12.303 0 22.259 9.956 22.259 22.259v22.26c-0 12.303-9.955 22.26-22.259 22.26zM511.998 895.975c-282.747 0-511.974-229.228-511.974-511.975s229.228-511.975 511.974-511.975c282.748 0 511.975 229.229 511.975 511.975s-229.228 511.975-511.975 511.975zM511.998-38.937c-233.576 0-422.936 189.36-422.936 422.937 0 233.576 189.36 422.937 422.936 422.937s422.937-189.361 422.937-422.937c0-233.577-189.361-422.937-422.937-422.937zM667.817 250.441h-311.638c-12.326 0-22.26-9.957-22.26-22.261v-22.259c0-12.303 9.934-22.261 22.26-22.261h311.638c12.303 0 22.259 9.957 22.259 22.261v22.259c-0 12.304-9.955 22.261-22.259 22.261z"  horiz-adv-x="1024" />

    
    <glyph glyph-name="jingshigantanhao" unicode="&#59379;" d="M512 640C476.8 640 448 611.2 448 576l0-192c0-35.2 28.8-64 64-64s64 28.8 64 64L576 576C576 611.2 547.2 640 512 640zM512 832C264.32 832 64 631.68 64 384s200.32-448 448-448 448 200.32 448 448S759.04 832 512 832zM512 0c-211.84 0-384 172.16-384 384s172.16 384 384 384 384-172.16 384-384S723.84 0 512 0zM512 256c-35.2 0-64-28.8-64-64s28.8-64 64-64 64 28.8 64 64S547.2 256 512 256z"  horiz-adv-x="1024" />

    
    <glyph glyph-name="v" unicode="&#58965;" d="M937.4 749.2 693.7 749.2 360.5 438.6 360.5 749.2 138.6 749.2 138.6 660.4 227.4 660.4 227.4-5.2Z"  horiz-adv-x="1024" />

    
    <glyph glyph-name="dingwei" unicode="&#58887;" d="M510.976182 833.610044c-168.849616 0-305.734216-136.885624-305.734216-305.73524 0-111.173009 59.344596-208.507848 148.090826-262.003226l121.640408-295.513434 0.034792 0c0-19.847024 16.104793-35.967166 35.96819-35.967166s35.969213 16.121166 35.969213 35.967166l0.034792 0 121.6752 295.513434c88.727811 53.531194 148.056034 150.830217 148.056034 262.003226C816.711422 696.724421 679.825798 833.610044 510.976182 833.610044zM510.976182 383.998977c-79.45461 0-143.874805 64.421218-143.874805 143.874805 0 79.455633 64.420195 143.875828 143.874805 143.875828 79.455633 0 143.875828-64.420195 143.875828-143.875828C654.850987 448.420195 590.430792 383.998977 510.976182 383.998977z"  horiz-adv-x="1024" />

    
    <glyph glyph-name="icon_order" unicode="&#58897;" d="M288 543.744h448c17.664 0 32 14.336 32 32s-14.336 32-32 32h-448c-17.664 0-32-14.336-32-32s14.336-32 32-32v0zM736 416.256h-448c-17.664 0-32-14.336-32-32s14.336-32 32-32h448c17.664 0 32 14.336 32 32 0 17.664-14.336 32-32 32v0zM736 224.256h-448c-17.664 0-32-14.336-32-32s14.336-32 32-32h448c17.664 0 32 14.336 32 32s-14.336 32-32 32v0zM418.688 736h160c26.528 0 48 21.504 48 48s-21.504 48-48 48h-160c-26.496 0-48-21.504-48-48s21.504-48 48-48v0zM832 800h-32c-17.664 0-32-14.336-32-32s14.336-32 32-32h32c35.296 0 64-28.704 64-64v-608c0-35.296-28.704-64-64-64h-640c-35.296 0-64 28.704-64 64v608c0 35.296 28.704 64 64 64h32c17.664 0 32 14.336 32 32s-14.336 32-32 32h-32c-70.688 0-128-57.312-128-128v-608c0-70.688 57.312-128 128-128h640c70.688 0 128 57.312 128 128v608c0 70.688-57.312 128-128 128v0zM832 800z"  horiz-adv-x="1024" />

    
    <glyph glyph-name="kongradio" unicode="&#58964;" d="M511.706311 831.978894c-247.27171 0-447.724091-200.453405-447.724091-447.724091 0-247.27171 200.452381-447.725114 447.724091-447.725114 247.270686 0 447.724091 200.453405 447.724091 447.725114C959.430402 631.52549 758.975974 831.978894 511.706311 831.978894zM511.706311 3.689275c-209.844286 0-380.565529 170.721243-380.565529 380.565529s170.721243 380.565529 380.565529 380.565529 380.565529-170.721243 380.565529-380.565529S721.550597 3.689275 511.706311 3.689275z"  horiz-adv-x="1024" />

    
    <glyph glyph-name="paiwuguandao" unicode="&#59007;" d="M379.257 21.432c-75.997 0-143.297 0.115-174.252 0.46-28.235 0.335-51.03 9.865-67.757 28.29-34.037 37.5-29.3 98.355-29.075 100.93l-0.052 416.349 321.302 0-0.337-199.284c-1.39-6.295-3.11-25.19 5.68-36.145 5.485-6.825 15.01-10.29 28.3-10.29l267.809 0 0-299.809-13.395-0.04c-2.8-0.015-187.56-0.46-338.217-0.46L379.257 21.433zM134.992 540.586l0-390.619c-0.092-1.625-3.95-53.065 22.227-81.795 11.662-12.805 27.395-19.16 48.1-19.41 82.69-0.94 426.244-0.18 498.674-0.02L703.993 294.872 463.061 294.872c-21.937 0-38.552 6.9-49.377 20.495-16.545 20.755-12.49 49.82-11.14 57.145l0 168.08L134.99 540.592 134.992 540.586zM475.699 611.691 58.847 611.691 58.847 801.505l416.851 0L475.698 611.691 475.699 611.691zM85.72 638.563l363.107 0L448.827 774.63 85.72 774.63 85.72 638.563zM965.148-38.338l-189.8 0L775.348 378.481l189.8 0L965.148-38.338zM802.223-11.468l136.055 0L938.278 351.611 802.223 351.611 802.223-11.468zM983.068-56.258 757.428-56.258 757.428 396.401l225.639 0L983.067-56.258zM820.143 6.452l100.215 0L920.358 333.691 820.143 333.691 820.143 6.452zM379.262 3.512c-88.305 0-147 0.155-174.457 0.46-33.415 0.4-60.605 11.89-80.825 34.165-37.462 41.275-34.337 105.065-33.727 113.66l-0.055 433.584 357.174 0-0.37-219.174-0.42-1.895c-1.265-5.735-1.05-17.065 2.16-21.065 1.388-1.725 5.888-3.585 14.322-3.585l285.729 0 0-335.594-31.26-0.095C713.763 3.952 528.874 3.512 379.262 3.512zM152.91 522.671l0.003-373.214-0.03-0.51c-1.108-17.325 1.372-50.915 17.582-68.705 8.255-9.065 19.4-13.37 35.072-13.56 26.865-0.305 84.282-0.46 170.64-0.46 81.02 0 185.202 0.135 309.897 0.4L686.074 276.952 463.061 276.952c-34.462 0-53.497 14.82-63.397 27.25-19.992 25.085-16.987 57.95-15.04 69.85l0 148.62L152.91 522.672zM493.619 593.771 40.927 593.771 40.927 819.425l452.691 0L493.618 593.771zM103.64 656.483l327.267 0L430.907 756.71 103.64 756.71 103.64 656.483z"  horiz-adv-x="1024" />

    
    <glyph glyph-name="ai206" unicode="&#59074;" d="M549.114767 502.593395l-78.311498 0 0-78.311498 78.311498 0L549.114767 502.593395zM705.795069 502.593395l-78.311498 0 0-78.311498 78.311498 0L705.795069 502.593395zM823.282783 248.034976c-46.981987 0-94.029466 7.804749-140.962335 23.465411-11.812012 3.965308-27.48086 0-39.24273-7.796562l-86.158203-86.174575c-109.574495 54.845064-199.76452 148.817225-258.507354 258.507354l86.166389 86.174575c11.820198 11.704565 15.717968 27.365227 7.8641 39.127097-11.76187 43.133336-19.566618 90.073368-19.566618 137.104474 0 23.523739-15.720014 39.126073-39.177239 39.126073L196.626043 737.568823c-23.51453 0-39.176215-15.602334-39.176215-39.126073 0-368.190319 297.691755-665.824769 665.832955-665.824769 23.465411 0 39.126073 15.717968 39.126073 39.176215l0 137.055355C862.408856 232.373291 846.747171 248.034976 823.282783 248.034976M784.106568 424.28292l78.303312 0 0 78.311498-78.303312 0L784.106568 424.28292z"  horiz-adv-x="1024" />

    
    <glyph glyph-name="shouhuodizhi" unicode="&#58914;" d="M511.590678 267.037125c-105.817024 0-191.921078 86.09382-191.921078 191.921078s86.104053 191.921078 191.921078 191.921078 191.921078-86.09382 191.921078-191.921078S617.407702 267.037125 511.590678 267.037125zM511.590678 605.721801c-80.923054 0-146.763598-65.840544-146.763598-146.763598s65.840544-146.763598 146.763598-146.763598 146.763598 65.840544 146.763598 146.763598S592.512708 605.721801 511.590678 605.721801zM511.436158-63.411983c-29.65746 0-56.425104 16.261359-69.853951 42.434461-33.868365 65.962318-82.003666 124.923174-139.839909 171.459047l-13.979386 10.517541c-94.505397 71.133084-148.7263 179.694615-148.7263 297.859875 0 205.426673 167.137625 372.553041 372.553041 372.553041s372.553041-167.126368 372.553041-372.553041c0-117.172653-53.779857-225.238904-147.579173-296.492738l-2.117221-1.532913c-63.768349-48.013527-116.710119-110.877273-153.135726-181.811836C567.883775-47.150624 541.115108-63.411983 511.436158-63.411983zM325.975213 217.358679l2.64627-1.984191c72.14718-54.175877 132.034129-125.2097 173.201737-205.41644 2.51324-4.895497 7.122211-5.633301 9.613962-5.633301 2.51324 0 7.122211 0.738827 9.635451 5.633301 41.145096 80.151481 100.988042 151.151535 173.068707 205.327412l1.191128 0.849344c77.041654 58.498322 121.075543 146.906861 121.075543 242.724137 0 168.074973-136.731104 304.816311-304.816311 304.816311S206.773344 626.933915 206.773344 458.858942c0-91.759867 39.953967-176.442548 110.160959-234.587829L325.975213 217.358679z"  horiz-adv-x="1024" />

    
    <glyph glyph-name="paizhao" unicode="&#59028;" d="M564.602032 483.072413c-98.961896 0-179.474604-80.511685-179.474604-179.474604 0-98.962919 80.511685-179.474604 179.474604-179.474604 98.962919 0 179.474604 80.511685 179.474604 179.474604C744.076636 402.560728 663.564951 483.072413 564.602032 483.072413zM564.602032 205.988724c-53.822836 0-97.610108 43.787272-97.610108 97.610108s43.787272 97.610108 97.610108 97.610108 97.610108-43.787272 97.610108-97.610108S618.424868 205.988724 564.602032 205.988724zM903.771755 613.102908l-96.367815 0-26.408463 122.279974c-4.069689 18.842137-20.73423 32.29145-40.010249 32.29145l-263.030625 0c-19.079544 0-35.628452-13.181207-39.895639-31.777751l-28.177759-122.793674L116.804263 613.102908c-29.476335 0-53.457516-23.981181-53.457516-53.457516l0-507.526105c0-29.477358 23.981181-53.457516 53.457516-53.457516l519.602142 0c22.606881 0 40.932248 18.325367 40.932248 40.932248s-18.325367 40.932248-40.932248 40.932248L145.211243 80.526267 145.211243 531.238412l297.274544 0c19.079544 0 35.628452 13.181207 39.895639 31.777751l28.176736 122.793674 197.391672 0 26.408463-122.279974c4.069689-18.842137 20.733207-32.29145 40.010249-32.29145l100.996229 0 0-450.712145-85.037768 0c-22.606881 0-40.932248-18.325367-40.932248-40.932248s18.325367-40.932248 40.932248-40.932248l113.443725 0c29.477358 0 53.457516 23.981181 53.457516 53.457516L957.228247 559.645392C957.230294 589.122751 933.249113 613.102908 903.771755 613.102908zM161.690566 660.511661l115.836215 0c16.954137 0 30.699186 13.745049 30.699186 30.699186s-13.745049 30.699186-30.699186 30.699186L161.690566 721.910033c-16.954137 0-30.699186-13.745049-30.699186-30.699186S144.736429 660.511661 161.690566 660.511661z"  horiz-adv-x="1024" />

    
    <glyph glyph-name="jiazhuang" unicode="&#59445;" d="M865.519997 749.718086l-24.380831 0 0 24.377761c0 67.327153-54.579046 121.90313-121.90313 121.90313L158.480003 895.998977c-67.325106 0-121.90313-54.575977-121.90313-121.90313l0-97.520252c0-67.327153 54.579046-121.906199 121.90313-121.906199l560.756033 0c67.325106 0 121.90313 54.579046 121.90313 121.906199 40.396292 0 73.142492-32.748246 73.142492-73.142492l0-73.142492c0-40.396292-32.7462-73.142492-73.142492-73.142492L572.951053 457.14812 451.047924 457.14812l-24.380831 0c-40.396292 0-73.142492-32.748246-73.142492-73.142492l0-73.142492-48.761661 0c-40.396292 0-73.142492-32.748246-73.142492-73.142492l0-292.57099c0-40.394245 32.745177-73.142492 73.142492-73.142492l170.664791 0c40.396292 0 73.142492 32.748246 73.142492 73.142492L548.570223 237.722691c0 40.394245-32.7462 73.142492-73.142492 73.142492l-48.761661 0c0 40.394245 32.7462 73.142492 73.142492 73.142492l121.90313 0c8.594586 0 16.720506-1.758007 24.380831-4.478926l0 4.478926L865.519997 384.007675c67.325106 0 121.90313 54.575977 121.90313 121.901083L987.423126 627.811887C987.423126 695.13904 932.845103 749.718086 865.519997 749.718086zM767.996674 700.953356c0-40.394245-32.748246-73.142492-73.142492-73.142492L182.860834 627.810864c-40.396292 0-73.142492 32.748246-73.142492 73.142492l0 48.763708c0 40.394245 32.745177 73.139422 73.142492 73.139422l511.994372 0c40.394245 0 73.142492-32.7462 73.142492-73.139422L767.997698 700.953356zM475.428754 188.958984 475.428754-6.086638c0-26.928815-21.8308-48.761661-48.761661-48.761661l-73.142492 0c-26.930861 0-48.761661 21.832847-48.761661 48.761661L304.76294 188.958984c0 26.930861 21.8308 48.763708 48.761661 48.763708l73.142492 0C453.597954 237.722691 475.428754 215.889845 475.428754 188.958984z"  horiz-adv-x="1024" />

    
    <glyph glyph-name="shijian" unicode="&#58888;" d="M876.239 49.802c0-16.59-13.442-30.031-30.032-30.031-16.59 0-30.033 13.442-30.033 30.031 0 16.588 13.442 30.033 30.033 30.033 16.59 0 30.032-13.444 30.032-30.033M726.341-3.964c-64.783-35.796-137.658-54.839-213.381-54.839-244.024 0-441.842 197.82-441.842 441.844 0 244.025 197.818 441.845 441.842 441.845 244.026 0 441.845-197.819 441.845-441.845 0-81.423-22.027-159.53-63.129-227.729-9.779-16.222-4.555-37.292 11.666-47.072 16.222-9.778 37.301-4.554 47.080 11.668 47.497 78.813 72.974 169.143 72.974 263.133 0 281.907-228.531 510.436-510.438 510.436-281.903 0-510.435-228.53-510.435-510.436 0-281.906 228.531-510.438 510.435-510.438 87.399 0 171.681 22.021 246.553 63.402 16.573 9.158 22.591 30.024 13.426 46.605-9.158 16.574-30.023 22.584-46.597 13.427zM478.671 623.107v-252.699c0.001-9.822 4.129-18.679 10.744-24.933l223.493-210.859c13.778-13.001 35.485-12.362 48.478 1.406 13.001 13.777 12.371 35.486-1.406 48.486l-223.485 210.845 10.76-24.946v252.699c0 18.938-15.355 34.293-34.293 34.293-18.936-0.001-34.289-15.355-34.289-34.293zM478.671 623.107z"  horiz-adv-x="1024" />

    
    <glyph glyph-name="07" unicode="&#59039;" d="M860.974615 803.690586H164.151109c-42.777533 0-78.391365-33.771737-78.391365-76.753948v-511.181291c0-20.877074 8.494104-40.8331 23.128523-55.365181 14.532081-14.429742 34.385769-22.821507 55.262842-22.821507h213.171298c-5.219268-74.40016-34.692784-118.610434-36.125525-120.759544-7.26604-10.029182-8.187088-23.3332-2.558465-34.385769s17.090546-18.113932 29.575854-18.113932H657.013792c12.38297 0 23.947232 7.368379 29.575854 18.420948s4.707575 23.947232-2.660803 33.976414c-1.43274 2.149111-31.008595 46.564062-36.227864 120.964221h213.273636c43.289226 0 77.265641 35.613832 77.265641 78.289027V726.936638c0 43.084549-33.976414 76.753948-77.265641 76.753948z m-696.823506-65.906057h696.823506c6.652009 0 11.359584-4.40056 11.359584-10.847891v-353.682191H151.665801V726.936638c0 6.754347 6.037977 10.847891 12.485308 10.847891z m439.85129-707.671397H421.020987c10.131521 26.505697 19.853688 62.426544 22.412153 107.353188h138.157106c2.558465-44.926644 12.280632-80.847492 22.412153-107.353188z m256.972216 173.361583H164.151109c-6.652009 0-12.485309 5.730961-12.485308 12.280632v91.593044h720.668398v-91.593044c0-6.242654-4.40056-12.280632-11.359584-12.280632z"  horiz-adv-x="1024" />

    
    <glyph glyph-name="wodezhangdan" unicode="&#58906;" d="M514.967523 830.10053c-243.950834 0-442.467872-198.517038-442.467873-442.467873 0-243.950834 198.517038-442.365544 442.467873-442.365544 244.053163 0 442.570201 198.41471 442.570201 442.365544S759.020686 830.10053 514.967523 830.10053z m0-812.794244c-204.247427 0-370.4287 166.181273-370.4287 370.4287s166.181273 370.4287 370.4287 370.428699c204.349755 0 370.633357-166.181273 370.633356-370.428699s-166.283601-370.4287-370.633356-370.4287zM329.753173 261.87109c0-19.851704 16.167882-36.019586 36.019586-36.019586h113.277506v71.936844H365.772759c-19.851704 0-36.019586-16.167882-36.019586-35.917258zM664.366943 225.851504c19.851704 0 36.019586 16.167882 36.019586 36.019586 0 19.851704-16.167882 36.019586-36.019586 36.019587H551.089437V225.953832h113.277506zM443.951634 434.806036l-78.178875-0.102329c-19.851704 0-36.019586-16.167882-36.019586-36.019586s16.167882-36.019586 36.019586-36.019586h113.277506v-217.447787c0-19.851704 16.167882-36.019586 36.019586-36.019586 19.851704 0 36.019586 16.167882 36.019586 36.019586V269.852703h0.102329v71.936844h-0.102329v20.977316h113.277506c19.851704 0 36.019586 16.167882 36.019586 36.019586s-16.167882 36.019586-36.019586 36.019587h-78.281203l0.102328 0.102328h-142.236434zM688.311782 632.095133c-16.167882 10.437494-39.498751 5.423404-49.731588-10.64215L514.967523 430.303587l5.116418-28.754272 69.992605 12.381733L698.953932 582.363546c10.744479 16.679524 5.935045 38.987109-10.64215 49.731587zM391.559508 621.452983c-10.437494 16.167882-33.666034 21.079644-49.731588 10.744479-16.679524-10.744479-21.488958-33.052064-10.64215-49.731588l108.979714-168.534826 69.992605-12.381733 5.116419 28.754272-123.715 191.149396z"  horiz-adv-x="1024" />

    
    <glyph glyph-name="zengjia" unicode="&#59396;" d="M525.312 175.616v198.656h195.072c9.216 0 16.896 2.56 16.896 11.776s-7.168 11.264-16.896 11.264h-195.072V592.384c0 9.216-2.56 16.896-11.264 16.896s-11.776-7.168-11.776-16.896v-195.072h-198.656c-9.216 0-16.896-2.56-16.896-11.776s7.168-11.776 16.896-11.776h198.656v-198.656c0-9.216 3.584-16.896 12.8-16.896s10.24 8.192 10.24 17.408z m-519.168 444.928h15.36v-153.6h-15.36v153.6z m514.048-727.04h153.6v-15.36h-153.6v15.36z m482.304 225.28h15.36v-153.6h-15.36v153.6z m-175.104-225.28h153.6v-15.36h-153.6v15.36z m12.288 996.864v-15.36h141.312c3.072 0 6.144-0.512 8.704-2.048l6.144 13.824c-4.608 2.048-9.728 3.072-14.848 3.072l-141.312 0.512z m162.816-464.384h15.36v-153.6h-15.36v153.6z m0 307.2h15.36v-153.6h-15.36v153.6z m-980.992-818.176v91.136h-15.36v-91.136c0-20.48 16.384-36.864 36.864-36.864h16.896v15.36h-16.896c-11.776 0-21.504 9.728-21.504 21.504z m191.488-21.504h153.6v-15.36h-153.6v15.36z m-206.848 419.84h15.36v-153.6h-15.36v153.6z m219.136 577.024h153.6v-15.36h-153.6v15.36z m307.2 0h153.6v-15.36h-153.6v15.36z m-526.336-36.864v-78.848h15.36V853.504c0 11.776 9.728 21.504 21.504 21.504h29.184v15.36h-29.184c-20.48 0-36.864-16.896-36.864-36.864z"  horiz-adv-x="1024" />

    
    <glyph glyph-name="shalou" unicode="&#59014;" d="M828.751642 9.078005h-28.728298c-5.059226 104.608499-28.66383 183.425589-62.9671 242.550175l-0.459465 1.171686c-36.032658 61.828161-83.673701 102.201683-133.834124 126.792754 50.161447 25.039279 97.803513 64.956408 133.834124 126.714983l0.459465 1.241271c35.472909 61.564148 59.83169 144.751778 63.525825 256.161171h28.167527c19.238157 0 34.372855 15.102976 34.372855 34.079166 0 18.969027-15.134699 34.060747-34.372855 34.060747H198.688713c-19.010983 0.002047-34.339086-15.09172-34.339086-34.0587 0-18.978237 15.328104-34.078143 34.341133-34.078143h28.204365c4.107551-111.411439 27.982308-194.59907 63.498196-256.163218l0.710175-1.24127c36.008099-61.758576 83.420945-101.675704 133.768633-126.714983-50.353828-24.590048-97.764628-64.964594-133.768633-126.792755l-0.710175-1.171686c-34.015721-59.124586-57.694003-137.943722-62.742996-242.550175H198.688713c-19.013029 0-34.341133-15.09479-34.341133-33.592072 0-19.431561 15.328104-34.562167 34.341133-34.562167h630.060883c19.238157 0 34.372855 15.131629 34.372855 34.562167 0.001023 18.497283-15.131629 33.591049-34.370809 33.591049zM325.89693 230.960465l0.524956 1.459234c41.34771 71.02666 86.510306 108.948341 146.412604 127.476323l2.344395 1.433652h0.494257c1.236154 0.483001 2.412956 0.972141 3.453658 1.956562l0.422625 0.451278 1.473561 1.017166 0.225128 0.490164 1.468444 1.427512 0.260943 0.489141c0.973164 1.014096 1.435699 2.189875 2.446725 3.420912v0.459465c1.011027 1.496074 1.473561 3.200902 1.473561 4.891403l0.220011 0.458441v1.496074l0.232291 1.213641v0.947582l-0.232291 1.23206v0.981351l-0.220011 0.975211c0 1.692548-0.457418 3.394307-1.473561 4.860704v0.489141c-1.011027 1.427512-1.473561 2.439562-2.446725 3.385097l-0.260943 0.753153-1.468444 1.213641h-0.225128l-1.473561 1.425466-0.422625 0.497326c-1.040702 0.74599-2.216481 1.459235-3.453658 2.204202l-0.494257 0.26299-2.344395 0.947581c-59.899228 18.003026-105.063871 56.443523-146.412604 127.96137l-0.524956 0.490164c-32.152281 56.222489-53.994752 132.825145-57.883315 235.980549h491.471454c-3.453658-103.155405-25.369807-179.759083-57.912991-235.975432l-0.490164-0.489141c-41.156352-71.51887-86.513376-109.964484-145.895834-127.960347l-2.929726-0.948604-0.488117-0.261967c-1.210571-0.747014-2.219551-1.459235-3.461845-2.206248l-0.451278-0.496304-1.474584-1.427512-1.660826-1.213641-0.227174-0.753153c-0.782829-0.944512-1.464351-1.949398-1.985214-3.38305l-0.48914-0.490164a245.315148 245.315148 0 0 1-1.467421-4.860705v-7.304359c0.490164-1.691525 1.007957-3.394307 1.467421-4.891404l0.48914-0.458441a15.771195 15.771195 0 0 1 1.985214-3.421936l0.227174-0.48914 1.660826-1.427512v-0.489141l1.474584-1.01819 0.451278-0.451278c1.007957-0.984421 2.25332-1.473561 3.461845-1.955538h0.488117l2.929726-1.435698c59.382459-18.526959 104.739483-56.446593 145.895834-127.4753l0.490164-1.460258c17.250896-29.225625 31.070646-64.739467 41.343617-106.08206 2.182712-11.773138 9.504468-37.72009 11.517311-71.252811-32.692586 28.942169-124.285654 50.180889-233.800907 51.819203v322.280054a26.051329 26.051329 0 0 1 3.27151 1.227967l0.265037 0.489141 5.840008 2.181688 0.52291 0.264013h0.488117c39.660278 12.392238 71.739904 32.092929 98.002034 57.919131 28.29851 27.715225 49.663096 62.251809 64.202231 100.238982 3.942799 10.697643-0.877997 22.375613-11.609409 26.255991-10.69662 4.370541-22.629393-0.98749-26.803459-11.706623-12.81691-32.354895-30.619368-62.028729-54.750975-85.634356-21.431102-20.935822-47.876404-37.439704-80.974219-47.681976l-0.980328-0.459464-2.409886-0.489141-1.991354-0.970094-1.956561 0.970094-1.465374 0.489141-1.925863 0.459464c-32.54523 10.241248-59.58405 26.748201-80.772628 47.681976-24.328082 23.603581-42.067095 53.278437-54.954613 85.634356-3.875261 10.719132-16.07307 16.077164-26.248827 11.706623-10.730389-3.880377-15.622816-15.559371-11.738345-26.255991 14.644535-37.986149 35.574217-72.523757 64.243163-100.238982 25.791409-25.826202 58.404178-45.524846 97.794303-57.919131h0.229221l0.74292-0.264013 5.350868-2.181688 1.467421-0.489141c0.756223-0.366344 1.562589-0.744967 2.462075-1.131776v-322.275961c-102.604866 0-191.33063-17.181311-233.751788-42.153053 1.461281 16.479323 4.870938 35.158754 11.337209 61.482283 10.241248 41.829687 24.327058 76.855412 41.379433 106.082061z"  horiz-adv-x="1024" />

    
    <glyph glyph-name="fanhui" unicode="&#58885;" d="M711.1-32.3c-13.2 0-26.3 5-36.4 15.2L297.8 363.1c-20.1 20.2-20.1 53.1 0 73.3L674.7 816.8c20.1 20.3 52.6 20.3 72.7 0 20.1-20.2 20.1-53.1 0-73.3L406.9 399.8l340.5-343.6c20.1-20.3 20.1-53.1 0-73.3-10-10.1-23.2-15.2-36.3-15.2z"  horiz-adv-x="1024" />

    
    <glyph glyph-name="dingwei1" unicode="&#59648;" d="M960 416h-65.6C879.2 602.4 730.4 751.2 544 766.4V832h-64v-65.6C293.6 751.2 144.8 602.4 129.6 416H64v-64h65.6c15.2-186.4 164-335.2 350.4-350.4v-65.6h64v65.6c186.4 15.2 335.2 164 350.4 350.4h65.6v64z m-448-352c-176.8 0-320 143.2-320 320s143.2 320 320 320 320-143.2 320-320-143.2-320-320-320z m128 320c0-70.4-57.6-128-128-128s-128 57.6-128 128 57.6 128 128 128 128-57.6 128-128z"  horiz-adv-x="1024" />

    
    <glyph glyph-name="jiadian" unicode="&#58900;" d="M629.4528 216.576a139.1616 139.1616 0 0 1 0 137.8304A136.0384 136.0384 0 0 1 511.488 423.3216c-75.264 0-136.3456-61.7472-136.3456-137.8304 0-76.1344 61.0304-137.8304 136.3456-137.8304 48.64 0 93.696 26.2656 118.016 68.9152z m-20.6336 68.9152a97.9456 97.9456 0 0 0-97.3824-98.5088 97.9456 97.9456 0 0 0-97.4336 98.5088c0 54.4256 43.6224 98.5088 97.4336 98.5088 53.76 0 97.3824-44.0832 97.3824-98.5088zM180.2752 896C137.3184 896 102.5024 860.7232 102.4 817.2544v-866.5088C102.4-92.7744 137.216-128 180.3264-128h662.2208a78.336 78.336 0 0 1 77.9776 78.7456V817.2544c0 20.8896-8.192 40.96-22.8352 55.7056A77.5168 77.5168 0 0 1 842.5472 896H180.3264z m584.3456-984.6784h-38.912 38.912z m-85.7088 15.7184H195.072a37.4784 37.4784 0 0 0-37.2736 37.6832V604.5696h707.2768v-639.7952a37.4784 37.4784 0 0 0-37.2224-37.6832H678.912zM163.584 636.16V793.6512a40.96 40.96 0 0 0 10.752 27.8528 35.328 35.328 0 0 0 25.9072 11.5712h622.3872c20.1728 0 36.5568-17.664 36.5568-39.424v-157.5936H163.584z m553.984-409.7536h27.5456c20.8896 0 40.192 11.264 50.688 29.5424a59.648 59.648 0 0 1 0 59.0848 58.368 58.368 0 0 1-50.5856 29.5424h-27.5968c-30.208 107.7248-136.5504 174.4384-245.3504 153.9584-108.8512-20.48-184.32-121.4464-174.1824-232.9088 10.1376-111.4624 102.6048-196.7104 213.3504-196.7616a214.784 214.784 0 0 1 206.1312 157.5424z m27.648 78.848c10.752 0 19.456-8.8576 19.456-19.7632 0-10.9056-8.704-19.712-19.456-19.712h-16.4864v39.424h16.4864z m-58.4704-19.712c0-97.8944-78.4896-177.2544-175.3088-177.2544s-175.3088 79.36-175.3088 177.2544c0 97.8944 78.4896 177.2032 175.3088 177.2032 96.768 0 175.3088-79.36 175.3088-177.2032zM259.1744 817.2544a58.368 58.368 0 0 1-52.1728-29.0304 59.6992 59.6992 0 0 1 0-60.16c10.8544-18.5856 30.8736-29.696 52.1728-28.9792h116.8896c32.256 0 58.4192 26.4192 58.4192 59.0848 0 32.6144-26.112 59.0848-58.4192 59.0848H259.1744z m0-78.7968a19.456 19.456 0 0 0-16.896 9.8816 19.9168 19.9168 0 0 0 0 19.712 19.456 19.456 0 0 0 16.896 9.8304h116.8896c10.752 0 19.456-8.8064 19.456-19.712 0-10.8544-8.704-19.712-19.456-19.712H259.1744z"  horiz-adv-x="1024" />

    
    <glyph glyph-name="yanjizaoju" unicode="&#59002;" d="M685.591 495.657h-349.541c-14.433 0-26.16 10.564-26.16 23.618v254.954c0 13.057 11.726 23.619 26.16 23.619h349.54c14.459 0 26.16-10.564 26.16-23.619v-254.953c0-13.056-11.701-23.619-26.159-23.619zM362.211 542.896h297.193v207.737h-297.193v-207.737M932.431 159.093h-843.195c-14.459 0-26.16 10.566-26.16 23.622v116.115c0 13.079 11.701 23.619 26.16 23.619h614.39c14.459 0 26.16-10.541 26.16-23.619 0-13.057-11.701-23.62-26.16-23.62h-588.23v-68.876h790.874v68.876h-58.759c-14.462 0-26.163 10.565-26.163 23.62 0 13.079 11.701 23.619 26.163 23.619h84.919c14.459 0 26.16-10.541 26.16-23.619v-116.116c-0.001-13.056-11.7-23.621-26.159-23.621zM847.511 275.21h-17.474c-14.459 0-26.161 10.565-26.161 23.62 0 13.079 11.702 23.619 26.161 23.619h17.474c14.458 0 26.16-10.541 26.16-23.619 0-13.056-11.702-23.62-26.16-23.62zM506.58-32.219c-6.693 0-13.413 2.33-18.521 6.942-10.193 9.25-10.193 24.173 0.051 33.401l2.248 2.006c5.186 4.612 12.287 10.979 12.263 14.785 0 1.109-0.741 7.105-14.128 18.661-23.786 20.528-27.411 40.25-26.289 53.169 2.352 27.309 26.671 43.341 29.431 45.070 11.826 7.475 28.153 4.845 36.403-5.881 8.201-10.611 5.392-25.167-6.232-32.685-2.351-1.616-7.18-6.158-7.434-10.265-0.255-3.805 3.501-9.388 10.272-15.271 20.259-17.483 30.145-34.622 30.297-52.429 0.206-23.805-17.37-39.42-27.845-48.786l-2.044-1.823c-5.086-4.564-11.778-6.894-18.472-6.894zM728.050-32.219c-6.693 0-13.413 2.33-18.523 6.942-10.193 9.25-10.193 24.173 0.051 33.401l2.25 2.006c5.187 4.636 12.313 10.979 12.264 14.785 0 1.109-0.715 7.105-14.128 18.661-23.76 20.528-27.39 40.25-26.289 53.169 2.375 27.309 26.671 43.341 29.43 45.070 11.853 7.475 28.153 4.845 36.404-5.881 8.202-10.611 5.367-25.142-6.208-32.685-2.348-1.592-7.178-6.136-7.46-10.265-0.254-3.805 3.501-9.388 10.298-15.293 20.233-17.461 30.145-34.599 30.272-52.408 0.179-23.782-17.346-39.42-27.845-48.786l-2.044-1.823c-5.084-4.563-11.777-6.893-18.472-6.893zM285.084-32.219c-6.693 0-13.413 2.33-18.521 6.942-10.193 9.25-10.193 24.173 0.052 33.401l2.247 2.006c5.187 4.636 12.313 10.979 12.264 14.785 0 1.109-0.716 7.105-14.128 18.661-23.784 20.528-27.412 40.25-26.288 53.169 2.351 27.309 26.671 43.341 29.43 45.070 11.828 7.475 28.153 4.845 36.405-5.881 8.201-10.611 5.39-25.167-6.234-32.685-2.348-1.616-7.179-6.158-7.433-10.265-0.255-3.805 3.5-9.388 10.269-15.271 20.259-17.483 30.172-34.622 30.299-52.429 0.205-23.782-17.346-39.42-27.847-48.786l-2.042-1.823c-5.086-4.564-11.781-6.894-18.473-6.894zM932.431 275.21h-78.405c-14.46 0-26.161 10.565-26.161 23.62 0 13.079 11.701 23.619 26.161 23.619h14.484l-193.624 171.915h-328.107l-193.623-171.914h537.365c14.459 0 26.161-10.541 26.161-23.619 0-13.057-11.702-23.62-26.161-23.62h-601.285c-10.628 0-20.183 5.791-24.219 14.67-4.011 8.88-1.686 19.099 5.85 25.788l246.865 219.154c4.88 4.36 11.471 6.781 18.345 6.781h349.513c6.873 0 13.438-2.421 18.343-6.781l246.839-219.154c7.561-6.689 9.887-16.908 5.877-25.788-4.036-8.88-13.592-14.671-24.218-14.671z"  horiz-adv-x="1024" />

    
    <glyph glyph-name="icon-test" unicode="&#58882;" d="M846 832h-670c-62.1 0-113-54.6-113-122.3v-651.3c0-67.3 50.4-122.4 113-122.4h670c62.1 0 113 54.6 113 122.3v651.9c0 67.2-50.4 121.8-113 121.8zM230.6 633.8h53.6c15.4 0 28.1-13.8 28.1-30.4 0-16.7-12.7-30.4-28.1-30.4h-53.6c-15.4 0-28.1 13.8-28.1 30.4 0.6 17.2 12.8 30.4 28.1 30.4zM483.1 199.1c0-13.8-5.3-26.4-13.8-35.6s-20.2-14.9-32.9-14.9h-187.2c-12.7 0-24.4 5.7-32.9 14.9s-13.8 21.8-13.8 35.6v203.3c0 13.8 5.3 25.8 13.3 35 8.5 9.2 19.6 14.4 32.4 14.4h188.3c12.7 0 24.4-5.7 32.9-14.9s13.8-21.8 13.8-35.6v-202.2h-0.1zM790.8 210.5h-168.1c-15.4 0-28.1 13.8-28.1 30.4s12.7 30.4 28.1 30.4h168.2c15.4 0 28.1-13.8 28.1-30.4 0-17.1-12.3-30.4-28.2-30.4zM790.8 392.6h-168.1c-15.4 0-28.1 13.8-28.1 30.4 0 16.7 12.7 30.4 28.1 30.4h168.2c15.4 0 28.1-13.8 28.1-30.4 0-16.6-12.3-30.4-28.2-30.4zM790.8 573.5h-405.8c-15.4 0-28.1 13.8-28.1 30.4 0 16.7 12.7 30.4 28.1 30.4h406.4c15.4 0 28.1-13.8 28.1-30.4-0.5-17.2-12.8-30.4-28.7-30.4z"  horiz-adv-x="1024" />

    
    <glyph glyph-name="tuichu" unicode="&#58949;" d="M511.991851-127.982934c-282.320581 0-511.991381 229.679334-511.991382 511.991382 0 282.277915 229.670801 511.991381 511.991382 511.991381a510.813801 510.813801 0 0 0 344.271538-133.032427 42.640349 42.640349 0 0 0 2.901284-60.244319c-15.829067-17.493039-42.793946-18.730351-60.286985-2.901285A425.840298 425.840298 0 0 1 511.991851 810.667932c-235.26004 0-426.659485-191.399445-426.659485-426.659484 0-235.302706 191.399445-426.659485 426.659485-426.659485 105.982216 0 207.569839 39.082009 286.032518 110.078147a42.606216 42.606216 0 0 0 60.244319-2.986616 42.640349 42.640349 0 0 0-2.986616-60.244319c-94.163748-85.246565-216.103029-132.179108-343.290221-132.179109M885.975955 343.552596H341.328057c-23.466272 0-42.665948 19.199677-42.665948 42.665948s19.199677 42.665948 42.665948 42.665948h544.647898L792.989787 524.550082a42.77688 42.77688 0 0 0 0 60.329651 42.77688 42.77688 0 0 0 60.329651 0l158.205337-162.770593a42.58915 42.58915 0 0 0 12.356059-32.946646 42.77688 42.77688 0 0 0 0-5.879367 42.58915 42.58915 0 0 0-12.356059-32.955179L853.319438 187.557355a42.77688 42.77688 0 0 0-60.329651 0 42.77688 42.77688 0 0 0 0 60.329651l92.986168 95.674123z"  horiz-adv-x="1024" />

    
    <glyph glyph-name="dkw_wode" unicode="&#58886;" d="M908.16 124.16c-48.213333 33.493333-115.626667 77.226667-128 85.333333A121.173333 121.173333 0 0 1 704 234.666667a152.96 152.96 0 0 1-97.493333-25.173334A164.693333 164.693333 0 0 0 512 170.666667a164.693333 164.693333 0 0 0-94.506667 38.826666A152.96 152.96 0 0 1 320 234.666667a121.173333 121.173333 0 0 1-75.52-24.746667c-13.013333-8.533333-80.426667-52.266667-128-85.333333S64 75.52 64 46.72c0-42.666667 0-102.613333 64-102.613333h768c64 0 64 60.16 64 104.533333 0 26.88-3.413333 41.813333-51.84 75.52zM896-13.44H128c-16.213333 0-21.333333 4.906667-21.333333 61.866667 0 15.36 0 19.2 33.493333 42.666666 47.573333 33.066667 114.56 75.52 128 83.84A78.933333 78.933333 0 0 0 320 192a111.786667 111.786667 0 0 0 73.173333-17.706667A205.653333 205.653333 0 0 1 512 128a205.44 205.44 0 0 1 118.826667 46.506667A111.573333 111.573333 0 0 0 704 192a79.573333 79.573333 0 0 0 52.48-17.92c13.013333-8.32 79.786667-51.84 128-85.333333C917.333333 65.706667 917.333333 64 917.333333 46.72c0-55.253333-5.12-60.16-21.333333-60.16zM512 379.733333a164.693333 164.693333 0 0 1 122.026667 53.546667 21.333333 21.333333 0 0 1-30.72 29.653333 123.306667 123.306667 0 0 0-182.613334 0 21.333333 21.333333 0 1 1-30.72-29.653333A164.693333 164.693333 0 0 1 512 379.733333zM512 277.333333a277.333333 277.333333 0 1 1-277.333333 277.333334 277.333333 277.333333 0 0 1 277.333333-277.333334z m0 512a234.666667 234.666667 0 1 0-234.666667-234.666666A234.666667 234.666667 0 0 0 512 789.333333z"  horiz-adv-x="1024" />

    
    <glyph glyph-name="dkw_wode-" unicode="&#58894;" d="M512 277.333333a277.333333 277.333333 0 1 1-277.333333 277.333334 277.333333 277.333333 0 0 1 277.333333-277.333334z m-124.373333 175.36a21.333333 21.333333 0 0 0 30.08 0 132.266667 132.266667 0 0 1 190.506666 0 21.333333 21.333333 0 0 0 30.72-29.653333 174.933333 174.933333 0 0 0-251.946666 0 21.333333 21.333333 0 0 0-0.426667 29.653333zM938.666667 89.386667c-28.16 33.28-168.746667 139.306667-234.666667 147.413333s-129.28-64-192-64-125.226667 71.466667-192 64-207.573333-113.92-234.666667-147.2-34.56-145.493333 42.666667-145.493333h768c78.506667-0.213333 71.68 112 42.666667 145.28z"  horiz-adv-x="1024" />

    
    <glyph glyph-name="dizhi" unicode="&#58994;" d="M450.532043 445.972447c0-34.796504 28.415167-63.003939 63.466474-63.00394s63.46545 28.207435 63.46545 63.00394c0 34.795481-28.415167 63.002916-63.46545 63.002916-35.052331 0-63.466474-28.207435-63.466474-63.002916zM260.222673 764.842845c-46.864354 0-84.712357-37.591153-84.712357-83.962274V617.831606h-54.284347c-17.726733 0-32.17684-14.351869-32.17684-32.055066 0-17.827017 14.406105-32.05609 32.17684-32.05609h54.284347v-61.897746h-54.284347c-17.726733 0-32.17684-14.351869-32.17684-32.05609 0-17.825994 14.406105-32.055067 32.17684-32.055066h54.284347v-61.897746h-54.284347c-17.726733 0-32.17684-14.351869-32.17684-32.05609 0-17.827017 14.406105-32.055067 32.17684-32.055066h54.284347V113.750973c0-46.500057 37.926798-83.962274 84.712357-83.962274h507.551688c46.864354 0 84.712357 37.591153 84.712357 83.962274V680.877501c0 46.500057-37.926798 83.96125-84.712357 83.96125H260.222673v0.004094zM513.998517 214.955956c-26.288736 0-126.932947 130.935098-126.932947 231.016491 0 100.079346 65.646116 133.709281 126.932947 133.709281 61.287855 0 126.933971-31.630395 126.933971-133.709281 0-102.080933-100.644211-231.016491-126.933971-231.016491z"  horiz-adv-x="1024" />

    
    <glyph glyph-name="jingqingqidai" unicode="&#58932;" d="M320 384H192c-70.4 0-128-57.6-128-128v-128c0-70.4 57.6-128 128-128h128c70.4 0 128 57.6 128 128V256c0 70.4-57.6 128-128 128z m64-256c0-35.2-28.8-64-64-64H192c-35.2 0-64 28.8-64 64V256c0 35.2 28.8 64 64 64h128c35.2 0 64-28.8 64-64v-128zM768 832H640c-70.4 0-128-57.6-128-128v-128c0-70.4 57.6-128 128-128h128c70.4 0 128 57.6 128 128V704c0 70.4-57.6 128-128 128z m64-256c0-35.2-28.8-64-64-64H640c-35.2 0-64 28.8-64 64V704c0 35.2 28.8 64 64 64h128c35.2 0 64-28.8 64-64v-128z m-64-192H640c-70.4 0-128-57.6-128-128v-128c0-70.4 57.6-128 128-128h128c70.4 0 128 57.6 128 128V256c0 70.4-57.6 128-128 128z m64-256c0-35.2-28.8-64-64-64H640c-35.2 0-64 28.8-64 64V256c0 35.2 28.8 64 64 64h128c35.2 0 64-28.8 64-64v-128zM320 832H192c-70.4 0-128-57.6-128-128v-128c0-70.4 57.6-128 128-128h128c70.4 0 128 57.6 128 128V704c0 70.4-57.6 128-128 128z m64-256c0-35.2-28.8-64-64-64H192c-35.2 0-64 28.8-64 64V704c0 35.2 28.8 64 64 64h128c35.2 0 64-28.8 64-64v-128z"  horiz-adv-x="1024" />

    
    <glyph glyph-name="leixing" unicode="&#58963;" d="M0.056812 109.898416a237.87001 237.87001 0 0 1 475.74002 0V347.768426H237.87001A237.813199 237.813199 0 0 1 0 109.898416z m389.386446 0a151.686871 151.686871 0 0 0-151.573248-151.573247 151.800494 151.800494 0 0 0-151.573247 151.573247 151.800494 151.800494 0 0 0 151.573247 151.573248h151.573248v-151.573248z m634.414713 548.231574a237.87001 237.87001 0 0 1-475.683209 0v-237.870011h237.813199a237.813199 237.813199 0 0 1 237.87001 237.870011z m-389.386446 0a151.686871 151.686871 0 0 0 151.516436 151.573247 151.800494 151.800494 0 0 0 151.573247-151.573247 151.686871 151.686871 0 0 0-151.573247-151.573248h-151.516436V658.12999zM237.87001 420.259979h237.870011V658.12999a237.87001 237.87001 0 1 1-237.870011-237.870011z m0 389.443258a151.686871 151.686871 0 0 0 151.573248-151.573247v-151.573248H237.87001a151.686871 151.686871 0 0 0-151.573247 151.573248 151.800494 151.800494 0 0 0 151.573247 151.573247z m548.231574-461.877999H548.231574v-237.926822a237.87001 237.87001 0 1 1 237.87001 237.87001z m0-389.500069a151.686871 151.686871 0 0 0-151.573248 151.573247v151.573248h151.573248a151.686871 151.686871 0 0 0 151.573247-151.573248 151.800494 151.800494 0 0 0-151.573247-151.573247z"  horiz-adv-x="1025" />

    
    <glyph glyph-name="zixun" unicode="&#58941;" d="M119.60169992503872 859.7415758402875h768.2275503460323c24.10755929476918 0 46.14875505680635-9.872620047333285 62.22046188889293-25.714729024617156l0.22959594808133532-0.22959594808133532c16.07170683208658-16.07170683208658 25.94432497269848-37.88330664604241 25.94432497269848-61.9908659408116v-767.3091684604284c0-24.10755929476918-9.872620047333285-46.14875505680635-25.94432497269848-61.9908659408116l-0.22959594808133532-0.22959594808133532c-16.07170683208658-15.842110884005244-38.11290259412374-25.94432497269848-62.22046188889293-25.94432497269848H121.4384656029679c-24.10755929476918 0-46.14875505680635 9.872620047333285-62.22046188889293 25.94432497269848l-0.22959594808133532 0.22959594808133532c-16.07170683208658 16.07170683208658-25.94432497269848 37.88330664604241-25.94432497269848 61.9908659408116v769.1459341383577c0 23.64836739860651 9.64302409925195 45.23037317120238 25.48513498325719 60.84288620040491l2.295957574091975 2.066363532732018c15.382918987842576 14.234939247435898 36.046540968113106 23.189175502443838 58.77652457439428 23.189175502443838zM887.829250271071 797.061922055232H119.60169992503872c-5.969490836671963 0-11.479789777181253-2.295957574091975-15.612514935923913-5.969490836671963l-0.9183818856039627-1.147979740406677c-4.362321106823993-4.362321106823993-6.887874628997302-10.10221599541462-6.887874628997302-16.53089682152787v-768.9163381902766c0-6.887874628997302 2.755149470254645-12.857365465669266 6.887874628997302-17.449280613853215l0.4591899894412921-0.45919189616267064 0.22959594808133532-0.22959594808133532c4.59191514818395-4.59191514818395 10.791001932937245-7.347066525159974 17.90847251001589-7.347064618438594h766.390784668103c6.887874628997302 0 13.0869614137506 2.5255535221733103 17.449280613853215 6.887874628997302l0.45919189616267064 0.4591899894412921 0.22959594808133532 0.22959594808133532c4.59191514818395 4.362321106823993 7.347066525159974 10.791001932937245 7.347064618438594 17.90847251001589V771.8063849267774c0 6.887874628997302-2.5255535221733103 12.857365465669266-6.887872722275922 17.449280613853215l-0.45919189616267064 0.45919189616267064-0.22959594808133532 0.22959404135995679c-4.821511096265285 4.362321106823993-11.02059788101858 7.117470577078637-18.138068458097223 7.117470577078637zM207.0777008491074 572.2876337944292c0 32.832199601695784 27.09230471310516 39.26088233453042 33.750581487299755 39.26088042780904h528.2999390454686c19.51564223986385-2.295957574091975 34.43936933154376-19.056452250422563 33.291391497858456-40.17926422013439 0-17.21968466577188-16.53089682152787-34.2097752901838-37.194520708519775-34.2097752901838H240.82828233640728s-30.30664607952247 1.8367656779293045-33.750581487299755 35.12815908250914zM554.2265512616855 373.9168604957665c0 32.832199601695784 27.09230471310516 39.26088233453042 33.75058339402113 39.26088233453042h180.69189483000682c19.51564223986385-2.295957574091975 34.43936933154376-19.056452250422563 33.291391497858456-40.17926422013439 0-17.21968466577188-16.53089682152787-34.2097752901838-37.194520708519775-34.2097752901838h-176.78876561934553c0.22959594808133532 0-30.30664607952247 1.8367656779293045-33.75058339402113 35.12815717578777zM554.2265512616855 200.3424362428384c0 32.832199601695784 27.09230471310516 39.26088233453042 33.75058339402113 39.26088042780904h180.69189483000682c19.51564223986385-2.295957574091975 34.43936933154376-19.056452250422563 33.291391497858456-40.17926422013439 0-17.21968466577188-16.53089682152787-34.2097752901838-37.194520708519775-34.2097752901838h-176.78876561934553c0.22959594808133532 0-30.30664607952247 1.8367656779293045-33.75058339402113 35.12815908250914zM247.48656101732334 413.17774283029695h166.4569555825709c12.398173569506593 0 20.434026032189195-1.6071697298479686 30.077050131441144-10.791001932937245 8.954236255007945-8.724640306926608 11.02059788101858-17.67887656193455 11.02059788101858-30.30664607952247v-165.99776368640826c0-14.00534329935456-3.443937314498651-22.500387658199834-10.791001932937245-30.077050131441144-7.347066525159974-7.347066525159974-14.69413114359857-11.02059788101858-30.30664607952247-11.020599787739961h-165.99776368640826c-14.464535195517238 0-22.729983606281174 3.443937314498651-30.077050131441144 10.791003839658622-6.887874628997302 6.887874628997302-11.02059788101858 14.00534329935456-11.02059788101858 30.30664607952247v166.4569555825709c0 13.316557361831936 3.443937314498651 22.270793616839878 10.791001932937245 29.617858235278476 8.495044358845272 8.265448410763936 18.138068458097223 11.479789777181253 29.847454183359808 11.02059788101858z m157.96191122372568-49.59269237130499h-148.77807902063637v-148.77807902063637h148.77807902063637v148.77807902063637z"  horiz-adv-x="1024" />

    
    <glyph glyph-name="shezhi" unicode="&#59274;" d="M396.8 16l41.6 48 6.4 6.4c38.4 35.2 99.2 32 134.4-6.4l41.6-48c22.4 6.4 44.8 16 64 25.6l-3.2 64v9.6c3.2 54.4 48 92.8 102.4 89.6l64-3.2c9.6 19.2 19.2 41.6 25.6 64l-48 41.6-6.4 6.4c-35.2 38.4-32 99.2 6.4 134.4l48 41.6c-6.4 22.4-16 44.8-25.6 64l-64-3.2h-9.6c-54.4 3.2-92.8 48-89.6 102.4l3.2 64c-19.2 9.6-41.6 19.2-64 25.6l-41.6-48-6.4-6.4c-38.4-35.2-99.2-32-134.4 6.4l-41.6 48c-16-6.4-38.4-16-64-28.8l3.2-64v-9.6c-3.2-54.4-48-92.8-102.4-89.6l-64 3.2c-9.6-19.2-19.2-41.6-25.6-64l48-41.6 6.4-6.4c35.2-38.4 32-99.2-6.4-134.4l-48-41.6c6.4-22.4 16-44.8 25.6-64l64 3.2h9.6c54.4-3.2 92.8-48 89.6-102.4l-3.2-64c22.4-6.4 41.6-12.8 64-22.4z m-128 12.8l3.2 83.2c0 19.2-12.8 32-28.8 35.2h-3.2l-83.2-3.2c-12.8 0-22.4 6.4-28.8 16-22.4 35.2-38.4 73.6-48 115.2-3.2 12.8 0 22.4 9.6 32l64 57.6c12.8 12.8 12.8 32 3.2 44.8l-3.2 3.2-64 57.6c-9.6 6.4-12.8 19.2-9.6 32 9.6 41.6 25.6 80 48 115.2 6.4 9.6 16 16 28.8 16l83.2-3.2c19.2 0 32 12.8 35.2 28.8v3.2l-3.2 83.2c0 12.8 6.4 25.6 19.2 28.8 48 25.6 86.4 38.4 115.2 48 12.8 3.2 22.4 0 32-9.6l57.6-64c12.8-12.8 32-12.8 44.8-3.2l3.2 3.2 57.6 64c6.4 9.6 19.2 12.8 32 9.6 41.6-9.6 80-25.6 115.2-48 9.6-6.4 16-16 16-28.8l-3.2-83.2c0-19.2 12.8-32 28.8-35.2h3.2l83.2 3.2c12.8 0 22.4-6.4 28.8-16 22.4-35.2 38.4-73.6 48-115.2 3.2-12.8 0-22.4-9.6-32l-64-57.6c-12.8-12.8-12.8-32-3.2-44.8l3.2-3.2 64-57.6c9.6-6.4 12.8-19.2 9.6-32-9.6-41.6-25.6-80-48-115.2-6.4-9.6-16-16-28.8-16l-83.2 3.2c-19.2 0-32-12.8-35.2-28.8v-3.2l3.2-83.2c0-12.8-6.4-22.4-16-28.8-35.2-22.4-73.6-38.4-115.2-48-12.8-3.2-22.4 0-32 9.6l-57.6 64c-12.8 12.8-32 12.8-44.8 3.2l-3.2-3.2-57.6-64c-6.4-9.6-19.2-12.8-32-9.6-41.6 9.6-80 25.6-115.2 48-12.8 3.2-19.2 16-19.2 28.8z m243.2 163.2c-105.6 0-192 86.4-192 192s86.4 192 192 192 192-86.4 192-192-86.4-192-192-192z m0 64c70.4 0 128 57.6 128 128s-57.6 128-128 128-128-57.6-128-128 57.6-128 128-128z"  horiz-adv-x="1024" />

    
    <glyph glyph-name="weixiu" unicode="&#58907;" d="M937.728-31.296l-12.928-12.928a137.088 137.088 0 0 0-193.92 0l-250.752 250.752a329.024 329.024 0 0 0-409.856 435.648l14.08-14.08a27.52 27.52 0 0 0 0 38.784l12.928 12.928a27.52 27.52 0 0 0 38.784 0l176.576-176.576h77.568V580.8L213.632 757.376a27.52 27.52 0 0 0 0 38.784l12.928 12.928a27.52 27.52 0 0 0 38.784 0l4.608-4.608-18.688 18.688A329.28 329.28 0 0 0 608 750.912a328.832 328.832 0 0 0 78.976-337.536l250.752-250.752a137.088 137.088 0 0 0 0-193.92z m-51.712 142.208L600.384 396.48a256 256 0 0 1-44.096 302.72 255.616 255.616 0 0 1-247.104 66.112l137.216-137.216c3.2-3.2 5.184-7.104 6.464-11.2a26.944 26.944 0 0 0 10.944-21.44v-128.704a27.2 27.2 0 0 0-13.76-23.296 27.392 27.392 0 0 0-23.36-13.76H297.984a27.264 27.264 0 0 0-21.44 10.944 26.496 26.496 0 0 0-11.2 6.464L128.128 584.32a255.936 255.936 0 0 1 66.112-247.168 255.936 255.936 0 0 1 302.72-44.096l285.568-285.568a64 64 0 0 1 90.496 0l12.928 12.928a64 64 0 0 1 0.064 90.496z m-743.488 640z"  horiz-adv-x="1024" />

    
    <glyph glyph-name="gerenxinxi" unicode="&#58925;" d="M637.781333-16.554667H70.144c-17.92 0-35.328 7.168-47.957333 19.968-12.629333 12.629333-19.626667 30.208-19.626667 47.957334v63.317333c-0.170667 70.997333 20.821333 139.605333 60.245333 198.314667 29.866667 44.202667 68.437333 80.725333 113.664 107.349333-46.250667 59.221333-60.586667 138.752-35.328 212.138667C172.373333 723.626667 257.877333 784.554667 353.962667 784.554667s181.418667-61.098667 212.821333-151.722667c25.258667-73.216 10.752-152.917333-35.328-212.138667 45.397333-26.794667 84.138667-63.146667 113.664-107.349333 39.594667-58.88 60.416-127.488 60.245333-198.314667v-63.317333c0.170667-17.92-6.997333-35.328-19.626666-47.957333-12.629333-12.8-30.208-20.309333-47.957334-20.309334zM74.752 55.637333H633.173333v59.221334c0.170667 56.490667-16.384 111.274667-47.957333 158.208s-75.776 82.944-128.170667 104.106666c-16.042667 6.485333-25.088 23.552-21.845333 40.448 1.877333 9.045333 6.826667 16.725333 13.824 22.016 50.688 40.277333 70.826667 108.373333 49.493333 169.642667-21.333333 61.610667-79.36 103.082667-144.554666 103.082667s-123.221333-41.301333-144.554667-103.082667c-21.333333-61.610667-1.024-130.048 50.176-170.154667 10.069333-8.021333 15.36-20.821333 13.482667-33.450666-1.877333-12.8-10.24-23.722667-22.186667-28.330667-52.394667-21.333333-96.768-57.173333-128.170667-104.106667-31.573333-46.933333-48.128-101.376-47.957333-158.037333v-59.562667zM985.429333 584.704H668.501333c-19.797333 0-36.181333 16.213333-36.181333 36.181333S648.533333 657.066667 668.501333 657.066667h316.928c19.797333 0 36.181333-16.213333 36.181334-36.181334s-16.384-36.181333-36.181334-36.181333zM985.429333 321.024H745.984c-19.797333 0-36.181333 16.213333-36.181333 36.181333 0 19.797333 16.213333 36.181333 36.181333 36.181334h239.445333c19.797333 0 36.181333-16.213333 36.181334-36.181334 0-19.797333-16.384-36.181333-36.181334-36.181333zM985.429333 55.637333H794.794667c-19.797333 0-36.181333 16.213333-36.181334 36.181334 0 19.797333 16.213333 36.181333 36.181334 36.181333h190.634666c19.797333 0 36.181333-16.213333 36.181334-36.181333 0-19.797333-16.384-36.181333-36.181334-36.181334z"  horiz-adv-x="1024" />

    
    <glyph glyph-name="nan" unicode="&#58883;" d="M234.618994 566.276369C203.551917 721.247689 284.738928 756.683574 284.738928 756.683574a72.813463 72.813463 0 0 0 2.184404 48.542309c70.02228-18.203366 96.113771 4.611519 96.113771 4.611519C362.527977 847.457691 397.721151 896 397.721151 896a173.174686 173.174686 0 0 1 113.224935-62.740934C748.924754 786.779806 740.187138 618.337995 725.381734 547.223513L721.983772 422.712491a237.978668 237.978668 0 0 0-116.744252-197.567196V167.865371h1.698981l244.653235-120.142214q55.702299-48.542309 55.580944-103.395117 2.063048-60.677886-17.717943-67.473809l-811.870111-4.732875a26.455558 26.455558 0 0 0-19.052856 26.091491L57.924991-39.652998q19.538279 66.988386 58.978905 90.652761t241.619341 117.593743v54.610097A238.100024 238.100024 0 0 0 238.259667 422.712491zM470.534614 579.018725c-50.848068-9.101683-121.355772 18.9315-135.19033 25.242-53.153828 23.057597-70.264992-13.470491-68.444655-72.813463l3.276606-112.011377c2.912539-99.269021 96.477838-177.786205 208.974639-177.786205s206.304812 78.517184 208.974638 177.786205l3.276606 125.239156c0 2.912539-62.134155 29.004029-119.050012 84.220906-3.762029 4.611519-19.780991-35.31453-101.817492-49.877222z"  horiz-adv-x="1024" />

    
    <glyph glyph-name="shangbiao" unicode="&#59025;" d="M618 322.8c-8.4 7.7-20.8 15.6-37.1 23.4l-9 4.3 9.9 1.3c43.8 5.9 77.1 20.3 99 42.9 21.3 22.6 31.6 49.7 31.6 82.8 0 25.8-6.5 49.4-19.4 70l-0.1 0.1c-11.7 20.9-28.8 35.6-50.8 43.7-20.6 8.4-51.7 12.4-95.1 12.4H339.3v-468h57V346.6h75.9c14.2 0 25.3-1.1 32.7-1.8l3.2-0.3c10.1-2.7 18.7-7.3 28.6-12.6l0.9-0.5c9.5-6.8 20.4-17.7 32.4-32.4 11.4-13.8 24-33.1 39.9-57.6l5.4-8.3 62.1-97.4h71.8l-79.9 124.7c-14.3 23.1-31.5 44.1-51.3 62.4z m-84.1 71.5H396.3V558h152.8c36.5 0 62.5-7.6 79.6-23.3 17-14.3 25.6-33.5 25.6-57.3 0-15-4.5-30.2-13.1-44-9.8-15.1-24.3-23.2-38.4-29.7l-0.3-0.1c-19.6-6.2-42.7-9.3-68.6-9.3zM803.6 675.6C724.1 754.4 623.3 796 512 796c-110.3 0-213.9-42.8-291.6-120.4C141.6 596.1 100 495.3 100 384c0-112 41.6-212.8 120.4-291.6C297.4 14.7 401-28 512-28c112 0 212.8 41.7 291.6 120.4C882.4 171.2 924 272 924 384c0 111.3-41.6 212.1-120.4 291.6zM769 126.7c-33.4-33.4-72.3-59.6-115.6-77.8C608.6 30 561 20.4 512 20.4s-96.6 9.6-141.4 28.5c-43.3 18.3-82.2 44.5-115.6 77.8-68.8 68.7-106.6 160-106.6 257.3 0 200.5 163.1 363.7 363.7 363.7 200.5 0 363.7-163.1 363.7-363.7-0.1-97.2-38-188.6-106.8-257.3z"  horiz-adv-x="1024" />

    
    <glyph glyph-name="qianjin" unicode="&#58895;" d="M782.156999 408.122193a46.304685 46.304685 0 0 1-5.847502 7.242612c-0.047832 0.048829-0.098654 0.084703-0.154458 0.134528l-459.48932 464.635281c-17.766721 17.966022-46.596661 17.966022-64.384309-0.014948-17.767718-17.973994-17.767718-47.116838 0-65.10578l427.433686-432.211936-427.448634-432.205958c-17.767718-17.972998-17.75277-47.140754 0.014948-65.120728 17.774693-17.966022 46.617588-17.966022 64.384309 0l459.48932 464.628306c0.056801 0.045839 0.106626 0.092675 0.154458 0.141504 15.566434 15.719896 17.509622 40.01872 5.847502 57.877119z m0 0"  horiz-adv-x="1024" />

    
    <glyph glyph-name="shanchu" unicode="&#59283;" d="M818.15326 692.145126H625.621269v37.05187c0 17.201777-14.040784 31.153534-31.374568 31.153534H429.241646c-17.334807 0-31.376615-13.951757-31.376614-31.153534v-37.05187H206.403418c-17.334807 0-35.804461-12.32777-35.80446-34.514072 0-23.854291 18.469654-33.712823 35.80446-33.712823h8.545631v-568.356542c0-27.393907 15.532765-46.708811 47.063898-46.708811h498.394121c32.199353 0 47.064922 12.594853 47.064922 46.708811V623.918231h10.68127c17.334807 0 35.247782 8.634658 35.247782 33.045628 0 25.479301-17.912975 35.181267-35.247782 35.181267z m-78.441537-615.554494H283.731598V623.940744h455.980125v-547.350112z m-342.558913 92.191702c12.506848 0 22.653953 10.148128 22.653953 22.653952V510.897132c0 12.528338-10.147104 22.675442-22.653953 22.675442-12.528338 0-22.675442-10.147104-22.675442-22.675442v-319.460846c0.001023-12.505825 10.148128-22.653953 22.675442-22.653952z m113.933889 0c12.506848 0 22.654976 10.148128 22.654976 22.653952V510.897132c0 12.528338-10.148128 22.675442-22.654976 22.675442-12.527314 0-22.674419-10.147104-22.674419-22.675442v-319.460846c0-12.505825 10.147104-22.653953 22.674419-22.653952z m113.934912 0c12.505825 0 22.652929 10.148128 22.65293 22.653952V510.897132c0 12.528338-10.147104 22.675442-22.65293 22.675442-12.528338 0-22.676465-10.147104-22.676465-22.675442v-319.460846c0-12.505825 10.148128-22.653953 22.676465-22.653952z"  horiz-adv-x="1024" />

    
    <glyph glyph-name="naozhong" unicode="&#58896;" d="M511.097002 690.116402c-160.733686 0-290.765432-130.031746-290.765432-290.765432s130.031746-290.765432 290.765432-290.765432c160.733686 0 290.765432 130.031746 290.765432 290.765432s-128.22575 290.765432-290.765432 290.765432z m0-489.425044c-108.359788 0-196.853616 88.493827-196.853616 196.853616s88.493827 196.853616 196.853616 196.853615 196.853616-88.493827 196.853615-196.853615-86.687831-196.853616-196.853615-196.853616zM511.097002 88.719577c-169.763668 0-308.825397 139.061728-308.825397 308.825397 0 169.763668 139.061728 308.825397 308.825397 308.825396s308.825397-139.061728 308.825397-308.825396c1.805996-169.763668-137.255732-308.825397-308.825397-308.825397z m0 583.33686c-149.897707 0-272.705467-122.80776-272.705468-272.705467S361.199295 124.839506 511.097002 124.839506s272.705467 122.80776 272.705467 272.705468-121.001764 274.511464-272.705467 274.511463zM355.781305 260.289242c-5.417989 0-10.835979 1.805996-14.447972 7.223986-5.417989 7.223986-10.835979 14.447972-16.253968 23.477954-3.611993 7.223986-9.029982 14.447972-10.835979 23.477954-3.611993 9.029982 0 19.865961 9.029983 23.477954 9.029982 3.611993 19.865961 0 23.477954-9.029982 3.611993-7.223986 5.417989-12.641975 9.029982-19.865962 3.611993-7.223986 9.029982-12.641975 12.641975-19.865961 5.417989-7.223986 5.417989-19.865961-3.611993-25.28395-1.805996-1.805996-5.417989-3.611993-9.029982-3.611993zM511.097002 182.631393c-39.731922 0-77.657848 10.835979-110.165785 30.70194-9.029982 5.417989-10.835979 16.253968-5.417989 25.283951 5.417989 9.029982 16.253968 10.835979 25.28395 5.417989 27.089947-16.253968 59.597884-25.283951 92.10582-25.28395 97.52381 0 178.793651 79.463845 178.793651 178.793651s-79.463845 178.793651-178.793651 178.79365-178.793651-79.463845-178.793651-178.79365c0-10.835979-7.223986-18.059965-18.059964-18.059965s-18.059965 7.223986-18.059965 18.059965c0 119.195767 95.717813 214.91358 214.91358 214.91358S726.010582 516.740741 726.010582 397.544974c0-117.389771-95.717813-214.91358-214.91358-214.913581zM606.814815 359.619048h-108.359789c-10.835979 0-18.059965 7.223986-18.059964 18.059964v108.359789c0 10.835979 7.223986 18.059965 18.059964 18.059964s18.059965-7.223986 18.059965-18.059964v-90.299824h90.299824c10.835979 0 18.059965-7.223986 18.059965-18.059965s-9.029982-18.059965-18.059965-18.059964zM249.227513 513.128748c-3.611993 0-9.029982 1.805996-12.641975 5.417989-25.283951 23.477954-37.925926 54.179894-37.925926 88.493827 0 66.821869 54.179894 119.195767 119.195767 119.195768 36.119929 0 68.627866-16.253968 92.10582-43.343916 7.223986-7.223986 5.417989-19.865961-1.805996-25.28395-7.223986-7.223986-19.865961-5.417989-25.283951 1.805996a83.075838 83.075838 0 0 1-65.015873 30.70194C270.899471 690.116402 234.779541 652.190476 234.779541 607.040564c0-23.477954 9.029982-45.149912 27.089948-61.40388 7.223986-7.223986 7.223986-18.059965 1.805996-25.28395-3.611993-5.417989-9.029982-7.223986-14.447972-7.223986zM776.578483 516.740741c-5.417989 0-9.029982 1.805996-12.641975 5.417989-7.223986 7.223986-7.223986 18.059965 0 25.283951 16.253968 16.253968 25.283951 36.119929 25.283951 59.597883 0 46.955908-37.925926 83.075838-83.075838 83.075838-23.477954 0-46.955908-10.835979-63.209877-28.895943-7.223986-7.223986-18.059965-9.029982-25.28395-1.805997-7.223986 7.223986-9.029982 18.059965-1.805997 25.283951 23.477954 25.283951 55.985891 41.537919 90.299824 41.537919 66.821869 0 119.195767-54.179894 119.195767-119.195768 0-32.507937-12.641975-61.40388-34.313933-84.881834-5.417989-3.611993-9.029982-5.417989-14.447972-5.417989zM270.899471 41.763668c-3.611993 0-7.223986 1.805996-10.835979 3.611993-7.223986 5.417989-9.029982 18.059965-3.611993 25.283951l36.11993 45.149912c5.417989 7.223986 18.059965 9.029982 25.28395 3.611993 7.223986-5.417989 9.029982-18.059965 3.611993-25.283951l-36.119929-45.149912c-3.611993-5.417989-9.029982-7.223986-14.447972-7.223986zM753.100529 41.763668c-5.417989 0-10.835979 1.805996-14.447972 7.223986l-36.119929 45.149912c-5.417989 7.223986-5.417989 19.865961 3.611993 25.283951 7.223986 5.417989 19.865961 5.417989 25.28395-3.611993l36.11993-45.149912c5.417989-7.223986 5.417989-19.865961-3.611993-25.283951-1.805996-1.805996-7.223986-3.611993-10.835979-3.611993z"  horiz-adv-x="1024" />

    
    <glyph glyph-name="nv" unicode="&#58891;" d="M856.522 102.848c-61.952 26.656-182.304 56.832-182.304 56.832s1.184 35.968 0 72.32c201.76-3.104 214.464 20.096 227.2 26.272-58.784 91.264-66.752 272.224-68.32 290.784-15.904 136.096-54.016 193.312-66.72 213.44C575.722 996 396.202 852.16 396.202 852.16 271.914 856.8 239.338 744.256 234.57 732.672c-21.44-60.32-35.744-172.832-39.328-186.752-28.576-218.08-89.344-286.528-94.112-295.808 75.072-26.688 245.44-17.376 245.44-17.376s1.184-46.4 1.184-74.24c-91.744-12.8-224-75.424-237.12-83.52C15.37 14.688 33.226-128 33.226-128H988.81c26.208 175.168-121.536 226.208-132.256 230.848zM558.634 213.024c-4.736-1.152-47.04-22.048-95.296 0-4.8 1.184-95.328 36.544-142.976 175.744-4.16 2.304-28.608 7.552-47.68 27.84-2.368 2.88-72.064 67.84 18.464 103.232 5.984 2.88 73.888 31.904 106.048 147.904 4.16 4.64 3.808 6.56 12.544 9.664 0 0 38.912-109.024 147.744-120.64 1.6 11.584-13.536-0.768-4.8 74.24 4.8-3.104 60.384-94.336 128.704-102.08 11.104-2.304 41.28-17.792 68.288-18.56 7.136-0.768 53.216-23.2 7.936-83.52-2.368-4.448-17.28-25.312-57.184-37.504-2.368-4.064-42.272-136.32-141.76-176.32z"  horiz-adv-x="1024" />

    
    <glyph glyph-name="diangongdianqi" unicode="&#58918;" d="M832 672a184.416 184.416 0 0 1-192-192v-352c0-129.28-95.04-192-160-192-63.808 0-160 65.92-160 192v32c148.704 0 256 119.04 256 320V672h-128v224h-64v-224H192v224H128v-224H0v-192c0-200.96 111.744-320 256-320v-32c0-161.6 126.08-256 224-256s224 95.68 224 256V480a118.592 118.592 0 0 0 128 128h128V672h-128zM64 480V608h448v-128c0-176.32-80.544-256-224-256-148.448 0-224 79.68-224 256z"  horiz-adv-x="1024" />

    
    <glyph glyph-name="kaisuo" unicode="&#59370;" d="M786.432 446.464c18.432-0.512 33.792-7.168 46.08-18.944s17.92-27.136 17.92-45.056v-376.832c0-19.456-6.144-35.84-18.944-49.152-12.8-13.312-28.16-20.48-47.104-20.992H239.616c-18.432 0.512-34.304 7.68-46.592 20.992-12.288 13.312-18.944 29.696-19.456 49.152V475.648c0 48.64 9.216 95.232 27.136 138.752 16.896 42.496 40.448 80.384 72.192 113.664 31.232 32.768 67.072 58.368 108.032 76.288 41.984 18.432 86.016 28.16 132.096 28.16s90.112-9.216 132.096-28.16c40.448-17.92 76.288-43.52 107.52-76.288s54.272-70.656 71.68-113.664c3.584-9.216 2.56-17.408-2.56-24.576s-12.288-10.752-21.504-11.264h-12.8c-14.848 0.512-25.6 7.168-32.256 19.968-6.656 12.8-14.848 27.136-25.088 43.52-10.24 16.384-19.456 29.696-28.16 39.424-25.6 26.112-54.272 46.08-87.04 60.928-32.768 14.848-67.072 22.016-102.912 22.016S441.856 757.248 408.576 742.4l-1.024-1.024c-32.256-13.824-60.416-34.304-85.504-60.416-25.088-26.112-44.544-56.832-58.368-91.648-14.848-36.864-22.016-74.24-22.016-113.152v-30.208h544.768z m-3.072-68.096H241.664l1.024-373.76H783.36v373.76z m-322.56-133.12c-5.12 8.704-7.68 17.92-7.68 28.16 0.512 16.896 6.656 30.72 17.408 41.472s24.576 16.384 41.472 16.384 30.72-5.632 41.472-16.384 16.896-25.088 17.408-41.472c0-10.24-2.56-19.456-7.168-28.16-4.608-8.704-11.264-15.872-19.968-20.992v-89.088a36.352 36.352 0 0 0-9.728-23.04c-5.632-6.144-12.8-9.216-22.016-9.216s-16.384 3.072-22.528 9.216-9.216 13.824-10.24 23.04v89.088c-6.656 5.632-13.312 12.8-18.432 20.992z"  horiz-adv-x="1024" />

    
    <glyph glyph-name="daqingdasao" unicode="&#58899;" d="M832 20.266667V405.333333c0 89.989333-73.3056 163.2-164.266667 163.2-89.8944 0-163.2-73.210667-163.2-163.2v-385.066666a29.749333 29.749333 0 0 1 29.866667-29.866667h267.733333a29.749333 29.749333 0 0 1 29.866667 29.866667z m64 385.066666v-385.066666c0-51.941333-41.941333-93.866667-93.866667-93.866667H534.4c-51.925333 0-93.866667 41.925333-93.866667 93.866667V405.333333c0 125.3088 101.9328 227.2 227.2 227.2 126.104533 0 228.266667-101.661867 228.266667-227.2zM864 169.6m-32 0a32 32 0 1 1 64 0 32 32 0 1 1-64 0ZM724.272 213.274667h140.704c37.973333 0 62.944 11.1904 78.525867 30.5024 12.3232 15.2736 18.673067 36.069333 18.673066 55.739733V552.6912c0 47.172267-8.456533 85.8208-24.098133 116.891733-13.384533 26.586667-31.936 47.431467-54.954667 63.319467-19.8048 13.669333-42.551467 23.3984-66.9824 29.4848-19.557333 4.871467-39.1776 7.1296-55.973333 7.1296H477.733333c-43.242667 0-81.146667-28.909867-92.5824-70.6112l-164.832-601.077333-61.7216 16.925866 164.832 601.077334c19.060267 69.502933 82.234667 117.685333 154.304 117.685333h282.433067c21.860267 0 46.661333-2.8544 71.4432-9.0272 31.534933-7.856 61.333333-20.6016 87.866667-38.9152 67.793067-46.792533 106.698667-124.075733 106.698666-232.8832v-253.1744c0-33.456-10.679467-68.433067-32.864-95.927467-28.1152-34.8448-71.560533-54.314667-128.336-54.314666H724.203733C713.130667 130.177067 692.465067 117.333333 668.8 117.333333c-35.346133 0-64 28.653867-64 64s28.653867 64 64 64c23.713067 0 44.413867-12.896 55.472-32.058666zM562.133333 85.333333l213.333334 0 0-64-213.333334 0 0 64ZM101.333333 64c-20.618667 0-37.333333-16.714667-37.333333-37.333333v-37.333334h248.533333v37.333334c0 20.618667-16.714667 37.333333-37.333333 37.333333H101.333333z m0 64h173.866667c55.9648 0 101.333333-45.368533 101.333333-101.333333v-37.333334c0-35.346133-28.653867-64-64-64H64c-35.346133 0-64 28.653867-64 64v37.333334c0 55.9648 45.368533 101.333333 101.333333 101.333333z"  horiz-adv-x="1026" />

    
    <glyph glyph-name="jishiben" unicode="&#58890;" d="M892.1-42.7H131.9c-17.8 0-35.1 3.5-51.4 10.4-15.6 6.6-29.7 16.1-41.9 28.2C26.5 8 17 22.1 10.3 37.8 3.5 54.2 0 71.5 0 89.2V678.8c0 17.8 3.5 35 10.4 51.3 6.6 15.7 16.1 29.8 28.2 41.9 12.2 12.2 26.3 21.7 42 28.3 16.2 6.9 33.5 10.4 51.3 10.4h83.4c23.6 0 42.7-19.1 42.7-42.7s-19.1-42.7-42.7-42.7h-83.4c-6.3 0-12.4-1.2-18.1-3.6-5.6-2.4-10.6-5.7-14.9-10-4.3-4.3-7.6-9.2-10-14.8-2.4-5.7-3.6-11.8-3.6-18.1v-589.6c0-6.3 1.2-12.4 3.7-18.1 2.3-5.5 5.7-10.5 10-14.8 4.3-4.2 9.2-7.6 14.8-9.9 5.8-2.4 11.9-3.7 18.1-3.7h760.2c6.3 0 12.4 1.2 18.1 3.6 5.6 2.4 10.6 5.7 14.9 10 4.3 4.3 7.6 9.2 10 14.8 2.4 5.7 3.6 11.8 3.6 18.1V678.8c0 6.3-1.2 12.4-3.7 18.1-2.3 5.5-5.7 10.5-10 14.8-4.3 4.2-9.2 7.6-14.8 9.9-5.8 2.4-11.9 3.7-18.1 3.7h-83.4c-23.6 0-42.7 19.1-42.7 42.7s19.1 42.7 42.7 42.7h83.4c17.8 0 35.1-3.5 51.4-10.4 15.6-6.6 29.7-16.1 41.9-28.2 12.1-12.1 21.6-26.2 28.3-41.9 6.9-16.3 10.4-33.6 10.4-51.4v-589.6c0-17.8-3.5-35-10.4-51.3-6.6-15.7-16.1-29.8-28.2-41.9-12.2-12.2-26.3-21.7-42-28.3-16.3-6.9-33.6-10.4-51.4-10.4zM229.8 181.2c-6.1 0-12.3 1.3-18.1 4.1-21.3 10-30.5 35.5-20.4 56.8L467.5 828.9c10 21.3 35.5 30.5 56.8 20.4 21.3-10 30.5-35.5 20.4-56.8L268.5 205.7c-7.3-15.4-22.7-24.5-38.7-24.5zM810.7 448H640c-23.6 0-42.7 19.1-42.7 42.7s19.1 42.7 42.7 42.7h170.7c23.6 0 42.7-19.1 42.7-42.7S834.2 448 810.7 448z m0-256h-384c-23.6 0-42.7 19.1-42.7 42.7s19.1 42.7 42.7 42.7h384c23.6 0 42.7-19.1 42.7-42.7S834.2 192 810.7 192z"  horiz-adv-x="1024" />

    


  </font>
</defs>
</svg>
